<svg width="219" height="150" viewBox="0 0 219 150" fill="none" xmlns="http://www.w3.org/2000/svg">
<g clip-path="url(#clip0)">
<path d="M181.599 68.5923C181.756 68.5909 181.911 68.6204 182.056 68.6791C182.2 68.7378 182.332 68.8245 182.443 68.9343C182.554 69.0441 182.642 69.1748 182.702 69.3188C182.763 69.4628 182.794 69.6173 182.794 69.7733V70.0904C183.947 70.2524 185.06 70.6229 186.08 71.1838C186.331 71.3152 186.541 71.5135 186.686 71.7567C186.831 72 186.906 72.2786 186.902 72.5616C186.903 72.7634 186.864 72.9636 186.787 73.1501C186.709 73.3366 186.595 73.5057 186.451 73.6475C186.307 73.7892 186.136 73.9006 185.948 73.9752C185.76 74.0497 185.559 74.0859 185.357 74.0815C185.078 74.0811 184.804 74.0135 184.557 73.8847C183.957 73.5463 183.317 73.2854 182.651 73.1083V76.5746C186.124 77.504 187.614 78.9255 187.614 81.4732C187.614 84.021 185.653 85.6721 182.772 85.9892V87.2029C182.743 87.4979 182.606 87.7718 182.386 87.9711C182.166 88.1704 181.88 88.2808 181.583 88.2808C181.286 88.2808 181 88.1704 180.78 87.9711C180.56 87.7718 180.423 87.4979 180.394 87.2029V85.9783C178.798 85.7669 177.264 85.223 175.892 84.3818C175.591 84.2094 175.356 83.9423 175.224 83.6222C175.092 83.3022 175.069 82.9474 175.161 82.6134C175.252 82.2795 175.452 81.9853 175.729 81.7769C176.006 81.5686 176.345 81.458 176.692 81.4623C177.009 81.477 177.316 81.5792 177.579 81.7575C178.466 82.3616 179.458 82.7955 180.504 83.0369V79.4175C177.218 78.5318 175.596 77.2306 175.596 74.5626C175.596 72.0586 177.513 70.3637 180.394 70.0685V69.7951C180.394 69.4819 180.519 69.1816 180.741 68.9601C180.963 68.7386 181.264 68.6142 181.578 68.6142L181.599 68.5923ZM180.504 75.9732V72.8568C179.408 73.0099 178.926 73.5676 178.926 74.2892C178.926 75.0109 179.255 75.4811 180.504 75.9294V75.9732ZM182.695 79.9643V83.1462C183.79 82.9822 184.316 82.4792 184.316 81.6591C184.316 80.839 183.933 80.4016 182.695 79.9643Z" stroke="#80C342" stroke-miterlimit="10"/>
<path d="M159.372 110.034C160.274 110.164 161.153 110.426 161.979 110.811C166.745 113.577 177.042 114.025 181.424 114.025H181.49C187.024 113.976 192.526 113.178 197.846 111.653C202.414 110.111 204.999 109.717 209.764 110.559C214.53 111.401 216.655 110.493 217.17 108.175C217.685 105.857 214.333 102.97 213.237 102.008C212.142 101.046 212.273 99.5042 212.47 98.4108C213.231 95.452 213.424 92.3765 213.04 89.346C212.61 85.9942 211.831 82.6961 210.718 79.505C210.111 77.7634 209.413 76.0552 208.625 74.3876M201.001 62.7095C200.553 62.168 200.077 61.6497 199.576 61.1568C197.756 59.1696 195.729 57.3808 193.529 55.8207C190.889 54.0931 190.692 49.4568 193.661 46.0562C196.63 42.6556 198.043 37.8881 197.648 36.9915C197.254 36.0948 196.367 35.5809 194.953 36.2151C193.54 36.8493 187.548 40.0531 183.1 40.2718C182.498 40.2718 182.005 40.2718 181.49 40.2718C178.368 40.1953 177.305 39.3205 174.402 37.8116C171.061 36.0839 166.482 34.9248 165.32 35.7559C163.458 37.4289 167.325 43.1476 170.415 48.0354C171.828 50.5394 172.025 53.0434 171.181 53.8853C169.965 55.1647 165.266 59.0246 161.913 62.8189C156.425 68.7935 152.603 76.1002 150.827 84.01L201.001 62.7095ZM207.289 71.7633C206.11 69.6389 204.789 67.5968 203.334 65.6509L207.289 71.7633Z" stroke="#80C342" stroke-width="3" stroke-linecap="round" stroke-linejoin="round"/>
<path d="M37.7401 68.5923C37.8964 68.5909 38.0514 68.6204 38.1962 68.6791C38.341 68.7378 38.4728 68.8245 38.5838 68.9343C38.6948 69.0441 38.7829 69.1748 38.8431 69.3188C38.9032 69.4628 38.9342 69.6173 38.9342 69.7733V70.0904C40.0863 70.2559 41.1994 70.6262 42.2207 71.1838C42.4718 71.3152 42.6816 71.5135 42.8266 71.7567C42.9717 72 43.0463 72.2786 43.0423 72.5616C43.0423 72.764 43.0019 72.9643 42.9233 73.1509C42.8447 73.3375 42.7296 73.5065 42.5847 73.6481C42.4398 73.7896 42.2681 73.9009 42.0795 73.9753C41.8909 74.0498 41.6894 74.0858 41.4867 74.0815C41.2081 74.0811 40.9338 74.0135 40.687 73.8847C40.0909 73.5465 39.454 73.2856 38.7918 73.1083V76.5746C42.2645 77.504 43.7543 78.9255 43.7543 81.4732C43.7543 84.021 41.7825 85.6721 38.9123 85.9892V87.2029C38.8839 87.4979 38.7464 87.7718 38.5266 87.9711C38.3068 88.1704 38.0206 88.2808 37.7237 88.2808C37.4268 88.2808 37.1405 88.1704 36.9207 87.9711C36.701 87.7718 36.5635 87.4979 36.5351 87.2029V85.9783C34.9383 85.7688 33.4039 85.2247 32.0326 84.3818C31.7318 84.2094 31.4968 83.9423 31.3645 83.6222C31.2322 83.3022 31.2101 82.9474 31.3016 82.6134C31.393 82.2795 31.593 81.9853 31.87 81.7769C32.147 81.5686 32.4855 81.458 32.8323 81.4623C33.1497 81.477 33.4569 81.5792 33.7197 81.7575C34.6066 82.3616 35.5985 82.7955 36.6446 83.0369V79.4175C33.3581 78.5318 31.7259 77.2306 31.7259 74.5626C31.7259 72.0586 33.6539 70.3637 36.5351 70.0685V69.7951C36.5351 69.4819 36.6597 69.1816 36.8816 68.9601C37.1035 68.7386 37.4044 68.6142 37.7182 68.6142L37.7401 68.5923ZM36.6446 75.9732V72.8568C35.5491 73.0099 35.0671 73.5676 35.0671 74.2892C35.0671 75.0109 35.3848 75.4811 36.6446 75.9294V75.9732ZM38.8356 79.9643V83.1462C39.9311 82.9822 40.4569 82.4792 40.4569 81.6591C40.4569 80.839 40.0735 80.4016 38.8356 79.9643Z" stroke="#80C342" stroke-miterlimit="10"/>
<path d="M67.8323 83.682C63.6256 66.7881 51.7614 57.4391 49.3733 55.8207C46.7331 54.0931 46.5469 49.4568 49.5047 46.0562C52.4625 42.6556 53.8867 37.8881 53.5032 36.9915C53.1198 36.0948 52.2106 35.5809 50.7974 36.2151C49.3842 36.8493 43.4247 40.0531 38.977 40.2718C38.3855 40.2718 37.8816 40.2718 37.3667 40.2718C34.2555 40.1953 33.1819 39.3205 30.2789 37.8116C26.9376 36.0839 22.3585 34.9248 21.2082 35.7559C19.3349 37.4289 23.202 43.1476 26.2913 48.0354C27.7045 50.5394 27.9016 53.0434 27.0691 53.8853C25.8421 55.1647 21.1425 59.0246 17.7903 62.8189C16.5509 64.1614 15.3948 65.5782 14.3285 67.0615M11.6884 71.1838C10.2459 73.7035 9.0464 76.3543 8.10614 79.1004L11.6884 71.1838ZM7.06543 82.5557C6.51753 84.6357 6.11488 86.7512 5.86039 88.8868C5.60419 90.8625 5.54547 92.8588 5.68511 94.8461C6.06853 98.6295 6.39718 100.434 5.75084 101.658C5.1045 102.883 0.40485 105.442 1.94949 108.471C3.49413 111.499 7.54744 110.778 10.319 110.264C13.0906 109.75 15.3473 109.63 17.856 110.778C22.6214 113.544 32.9299 113.992 37.301 113.992H37.3667C42.89 113.941 48.3809 113.143 53.6895 111.62C55.5258 110.948 57.4278 110.472 59.3641 110.198L7.06543 82.5557Z" stroke="#80C342" stroke-width="3" stroke-linecap="round" stroke-linejoin="round"/>
<path d="M40.1827 6.69182C40.0254 6.59398 39.8503 6.52822 39.6674 6.49835C39.4845 6.46848 39.2975 6.47509 39.1172 6.5178C38.9369 6.5605 38.7669 6.63846 38.6169 6.74715C38.467 6.85585 38.3401 6.99314 38.2437 7.15107C36.746 9.53292 35.9524 12.2884 35.9541 15.1005V15.3301C35.9541 15.7042 36.103 16.063 36.368 16.3275C36.633 16.5921 36.9925 16.7407 37.3673 16.7407C37.7421 16.7407 38.1015 16.5921 38.3666 16.3275C38.6316 16.063 38.7805 15.7042 38.7805 15.3301V15.1005C38.7821 12.8147 39.4274 10.5754 40.6428 8.63817C40.8384 8.31865 40.8998 7.93501 40.8136 7.57058C40.7275 7.20615 40.5008 6.89037 40.1827 6.69182V6.69182Z" fill="#80C342"/>
<path d="M37.3673 21.7378C36.9915 21.7407 36.6321 21.8917 36.3673 22.158C36.1026 22.4243 35.9541 22.7842 35.9541 23.1593V30.9775C35.9541 31.1627 35.9907 31.3461 36.0617 31.5173C36.1327 31.6884 36.2368 31.8439 36.368 31.9749C36.4992 32.1059 36.655 32.2098 36.8265 32.2807C36.9979 32.3516 37.1817 32.388 37.3673 32.388C37.5529 32.388 37.7366 32.3516 37.9081 32.2807C38.0795 32.2098 38.2353 32.1059 38.3666 31.9749C38.4978 31.8439 38.6019 31.6884 38.6729 31.5173C38.7439 31.3461 38.7805 31.1627 38.7805 30.9775V23.1593C38.7805 22.7842 38.6319 22.4243 38.3672 22.158C38.1025 21.8917 37.7431 21.7407 37.3673 21.7378V21.7378Z" fill="#80C342"/>
<path d="M52.836 6.98035e-05H51.0942C48.841 -0.00683063 46.6158 0.497962 44.5869 1.47624C44.2999 1.61564 44.0685 1.84797 43.9306 2.13537C43.7927 2.42277 43.7564 2.7483 43.8275 3.05895C43.8987 3.3696 44.0731 3.64706 44.3224 3.84612C44.5717 4.04518 44.8812 4.15412 45.2004 4.15519C45.4132 4.15643 45.6234 4.10775 45.8139 4.01305C47.4664 3.24399 49.2709 2.85535 51.0942 2.87585H52.836C53.0216 2.87585 53.2053 2.83937 53.3768 2.76848C53.5482 2.6976 53.704 2.5937 53.8353 2.46271C53.9665 2.33173 54.0706 2.17623 54.1416 2.0051C54.2126 1.83396 54.2492 1.65054 54.2492 1.4653C54.2492 1.28006 54.2126 1.09664 54.1416 0.925504C54.0706 0.754367 53.9665 0.598868 53.8353 0.467886C53.704 0.336904 53.5482 0.233004 53.3768 0.162117C53.2053 0.0912295 53.0216 0.0547417 52.836 0.0547417V6.98035e-05Z" fill="#80C342"/>
<path d="M68.5225 0H60.6788C60.304 0 59.9446 0.148614 59.6795 0.413144C59.4145 0.677675 59.2656 1.03645 59.2656 1.41056C59.2656 1.78466 59.4145 2.14344 59.6795 2.40797C59.9446 2.6725 60.304 2.82111 60.6788 2.82111H68.5225C68.8973 2.82111 69.2568 2.6725 69.5218 2.40797C69.7868 2.14344 69.9357 1.78466 69.9357 1.41056C69.9357 1.03645 69.7868 0.677675 69.5218 0.413144C69.2568 0.148614 68.8973 0 68.5225 0V0Z" fill="#80C342"/>
<path d="M99.7877 6.46241C100.052 6.19621 100.2 5.83664 100.2 5.4619C100.2 5.08717 100.052 4.72759 99.7877 4.46139C97.744 2.4039 95.1504 0.976673 92.3164 0.350003C92.1334 0.305723 91.9434 0.298399 91.7575 0.328458C91.5716 0.358518 91.3936 0.425357 91.234 0.525047C91.0743 0.624736 90.9363 0.755266 90.8279 0.908968C90.7195 1.06267 90.643 1.23645 90.6028 1.42008C90.5627 1.60372 90.5597 1.79351 90.594 1.97831C90.6284 2.16311 90.6994 2.3392 90.803 2.49621C90.9065 2.65323 91.0404 2.78801 91.1968 2.89265C91.3532 2.99728 91.529 3.06965 91.7139 3.10551C94.0153 3.6199 96.1212 4.78093 97.7829 6.45148C97.9122 6.58459 98.0672 6.69007 98.2386 6.76151C98.4099 6.83294 98.5941 6.86883 98.7798 6.86699C99.1557 6.868 99.5171 6.72288 99.7877 6.46241V6.46241Z" fill="#80C342"/>
<path d="M84.1993 0H76.3556C75.9808 0 75.6213 0.148614 75.3563 0.413144C75.0913 0.677675 74.9424 1.03645 74.9424 1.41056C74.9424 1.78466 75.0913 2.14344 75.3563 2.40797C75.6213 2.6725 75.9808 2.82111 76.3556 2.82111H84.1993C84.5741 2.82111 84.9335 2.6725 85.1985 2.40797C85.4636 2.14344 85.6124 1.78466 85.6124 1.41056C85.6124 1.03645 85.4636 0.677675 85.1985 0.413144C84.9335 0.148614 84.5741 0 84.1993 0Z" fill="#80C342"/>
<path d="M105.539 18.392H104.203V15.1116C104.205 14.0491 104.092 12.9894 103.863 11.9516C103.771 11.6008 103.546 11.2991 103.237 11.1092C102.927 10.9193 102.556 10.8557 102.201 10.9317C101.845 11.0077 101.533 11.2174 101.328 11.5173C101.124 11.8172 101.043 12.1842 101.103 12.542C101.287 13.3861 101.379 14.2477 101.376 15.1116V18.392H100.073C99.6389 18.3949 99.2237 18.569 98.9179 18.8763C98.6121 19.1835 98.4405 19.5991 98.4405 20.0322C98.4379 20.3386 98.5255 20.6389 98.6925 20.896V20.896C98.7487 20.9835 98.8149 21.0642 98.8896 21.1366L101.585 23.8265C101.901 24.1338 102.326 24.3056 102.768 24.3056C103.209 24.3056 103.634 24.1338 103.951 23.8265L106.58 21.2022C106.829 20.9809 107.004 20.6893 107.083 20.3661C107.162 20.043 107.141 19.7034 107.022 19.3926C106.903 19.0819 106.693 18.8145 106.418 18.626C106.143 18.4375 105.818 18.3369 105.484 18.3373L105.539 18.392Z" fill="#80C342"/>
<path d="M157.762 0H149.874C149.499 0 149.14 0.148614 148.875 0.413144C148.61 0.677675 148.461 1.03645 148.461 1.41056C148.461 1.78466 148.61 2.14344 148.875 2.40797C149.14 2.6725 149.499 2.82111 149.874 2.82111H157.762C158.136 2.82111 158.496 2.6725 158.761 2.40797C159.026 2.14344 159.175 1.78466 159.175 1.41056C159.175 1.03645 159.026 0.677675 158.761 0.413144C158.496 0.148614 158.136 0 157.762 0Z" fill="#80C342"/>
<path d="M125.993 0.262475C123.114 0.795556 120.451 2.14731 118.324 4.15517C118.117 4.3492 117.974 4.6009 117.912 4.87749C117.851 5.15409 117.874 5.44275 117.98 5.70589C118.085 5.96903 118.267 6.19444 118.502 6.35277C118.738 6.5111 119.015 6.59501 119.299 6.59357C119.657 6.59046 120.001 6.45397 120.263 6.21086C121.988 4.57598 124.149 3.47135 126.486 3.02891C126.677 3.00471 126.861 2.94166 127.027 2.84364C127.193 2.74563 127.338 2.61473 127.451 2.459C127.564 2.30327 127.645 2.12602 127.687 1.93815C127.729 1.75028 127.732 1.55578 127.696 1.36662C127.66 1.17747 127.586 0.997657 127.478 0.838271C127.37 0.678886 127.23 0.543299 127.067 0.439859C126.905 0.33642 126.722 0.267321 126.532 0.236814C126.341 0.206307 126.147 0.21504 125.96 0.262475H125.993Z" fill="#80C342"/>
<path d="M141.976 0H134.088C133.713 0 133.354 0.148614 133.089 0.413144C132.824 0.677675 132.675 1.03645 132.675 1.41056C132.675 1.78466 132.824 2.14344 133.089 2.40797C133.354 2.6725 133.713 2.82111 134.088 2.82111H141.976C142.35 2.82111 142.71 2.6725 142.975 2.40797C143.24 2.14344 143.389 1.78466 143.389 1.41056C143.389 1.03645 143.24 0.677675 142.975 0.413144C142.71 0.148614 142.35 0 141.976 0Z" fill="#80C342"/>
<path d="M180.318 7.24947C180.105 6.96217 179.792 6.76547 179.44 6.69852C179.088 6.63156 178.724 6.69928 178.42 6.88818C178.116 7.07708 177.895 7.37331 177.8 7.71787C177.705 8.06243 177.744 8.43004 177.908 8.7475C179.125 10.6923 179.77 12.9389 179.77 15.2317V15.4832C179.77 15.8573 179.919 16.2161 180.184 16.4806C180.449 16.7451 180.809 16.8937 181.184 16.8937C181.558 16.8937 181.918 16.7451 182.183 16.4806C182.448 16.2161 182.597 15.8573 182.597 15.4832V15.2317C182.596 12.4112 181.806 9.64696 180.318 7.24947V7.24947Z" fill="#80C342"/>
<path d="M173.931 1.48716C171.881 0.501937 169.634 -0.00650716 167.358 6.28704e-05H165.616C165.241 6.28704e-05 164.882 0.148677 164.617 0.413207C164.352 0.677738 164.203 1.03652 164.203 1.41062C164.203 1.78472 164.352 2.1435 164.617 2.40803C164.882 2.67256 165.241 2.82118 165.616 2.82118H167.358C169.202 2.81374 171.024 3.22898 172.682 4.03491C172.85 4.11532 173.032 4.162 173.217 4.17227C173.403 4.18255 173.589 4.15621 173.764 4.09478C173.94 4.03335 174.101 3.93803 174.24 3.81425C174.379 3.69047 174.491 3.54066 174.572 3.37337C174.652 3.20608 174.699 3.02459 174.71 2.83927C174.72 2.65394 174.693 2.46841 174.632 2.29326C174.57 2.11811 174.475 1.95677 174.351 1.81846C174.227 1.68015 174.077 1.56757 173.909 1.48716H173.931Z" fill="#80C342"/>
<path d="M181.183 21.9019C180.808 21.9019 180.448 22.0505 180.183 22.315C179.918 22.5795 179.77 22.9383 179.77 23.3124V31.1853C179.77 31.5594 179.918 31.9182 180.183 32.1827C180.448 32.4472 180.808 32.5958 181.183 32.5958C181.558 32.5958 181.917 32.4472 182.182 32.1827C182.447 31.9182 182.596 31.5594 182.596 31.1853V23.3124C182.596 22.9383 182.447 22.5795 182.182 22.315C181.917 22.0505 181.558 21.9019 181.183 21.9019V21.9019Z" fill="#80C342"/>
<path d="M117.612 18.392H116.352V15.1881C116.351 14.1894 116.473 13.1943 116.713 12.2249C116.767 12.0428 116.783 11.8518 116.761 11.6634C116.738 11.475 116.678 11.293 116.584 11.1283C116.489 10.9636 116.363 10.8197 116.211 10.705C116.06 10.5903 115.887 10.5073 115.702 10.461C115.518 10.4146 115.326 10.4058 115.138 10.4352C114.951 10.4645 114.771 10.5314 114.609 10.6317C114.448 10.7321 114.309 10.8639 114.2 11.0193C114.091 11.1747 114.014 11.3504 113.975 11.536C113.678 12.7309 113.528 13.9572 113.526 15.1881V18.392H112.145C111.709 18.392 111.291 18.5648 110.983 18.8724C110.675 19.18 110.502 19.5971 110.502 20.0321C110.505 20.3377 110.592 20.6366 110.754 20.896V20.896C110.81 20.9807 110.872 21.0611 110.94 21.1365L113.646 23.8264C113.801 23.9814 113.986 24.1038 114.189 24.1865C114.392 24.2691 114.61 24.3103 114.829 24.3075C115.047 24.3107 115.263 24.2696 115.465 24.1869C115.666 24.1042 115.849 23.9816 116.001 23.8264L118.641 21.2021C118.89 20.9809 119.066 20.6893 119.145 20.3661C119.224 20.0429 119.202 19.7034 119.084 19.3926C118.965 19.0818 118.754 18.8144 118.479 18.626C118.205 18.4375 117.879 18.3368 117.546 18.3373L117.612 18.392Z" fill="#80C342"/>
<path d="M109.406 68.0567C109.713 68.0538 110.018 68.112 110.302 68.228C110.587 68.344 110.845 68.5155 111.063 68.7323C111.28 68.9492 111.452 69.2071 111.568 69.491C111.684 69.7749 111.742 70.0791 111.739 70.3857V71.009C114.024 71.3372 116.229 72.0783 118.247 73.1959C118.735 73.4551 119.144 73.8427 119.427 74.3169C119.711 74.791 119.86 75.3335 119.857 75.8858C119.86 76.2838 119.783 76.6784 119.63 77.0461C119.478 77.4138 119.253 77.7473 118.969 78.0267C118.685 78.3061 118.348 78.5257 117.977 78.6726C117.607 78.8195 117.21 78.8907 116.812 78.8819C116.26 78.8813 115.718 78.7421 115.234 78.4773C114.059 77.8304 112.812 77.3204 111.52 76.9574V83.7696C118.334 85.5957 121.248 88.3731 121.248 93.392C121.248 98.411 117.392 101.626 111.739 102.249V104.567C111.739 105.185 111.494 105.777 111.056 106.214C110.618 106.651 110.025 106.896 109.406 106.896C108.787 106.896 108.194 106.651 107.756 106.214C107.318 105.777 107.073 105.185 107.073 104.567V102.162C103.942 101.749 100.934 100.684 98.243 99.0342C97.7723 98.7618 97.3829 98.3688 97.1152 97.8959C96.8476 97.423 96.7112 96.8874 96.7203 96.3443C96.7126 95.9393 96.7876 95.537 96.9407 95.1619C97.0938 94.7867 97.3218 94.4466 97.6108 94.1622C97.8998 93.8778 98.2438 93.6551 98.6218 93.5077C98.9998 93.3602 99.4039 93.2911 99.8095 93.3045C100.437 93.3266 101.046 93.5277 101.562 93.8841C103.306 95.0627 105.252 95.9114 107.303 96.3881V89.2588C100.839 87.5092 97.6624 85.049 97.6624 79.7238C97.6624 74.8033 101.431 71.4901 107.073 70.9106V70.3748C107.07 70.0682 107.128 69.764 107.244 69.4801C107.361 69.1962 107.532 68.9383 107.75 68.7214C107.967 68.5046 108.225 68.3331 108.51 68.2171C108.794 68.1011 109.099 68.0428 109.406 68.0458V68.0567ZM107.303 82.5559V76.5091C105.112 76.8262 104.202 77.8978 104.202 79.3302C104.202 80.7626 104.838 81.6593 107.303 82.6106V82.5559ZM111.52 90.385V96.6177C113.624 96.3006 114.697 95.3165 114.697 93.6982C114.697 92.0799 113.941 91.2379 111.52 90.4178V90.385Z" stroke="#80C342" stroke-width="2" stroke-miterlimit="10"/>
<path d="M97.8167 116.376L95.6257 113.435C95.5065 113.286 95.441 113.101 95.4395 112.91C95.4409 112.814 95.4613 112.72 95.4997 112.632C95.538 112.544 95.5935 112.465 95.6628 112.399C95.7321 112.333 95.8139 112.281 95.9035 112.247C95.993 112.212 96.0885 112.196 96.1844 112.199C96.3334 112.205 96.4783 112.25 96.6049 112.329C96.7316 112.407 96.8358 112.517 96.9074 112.648L98.5397 114.998L100.194 112.626C100.266 112.499 100.369 112.392 100.493 112.315C100.618 112.239 100.76 112.195 100.906 112.188C101.002 112.184 101.098 112.199 101.188 112.234C101.278 112.268 101.36 112.321 101.428 112.389C101.496 112.457 101.549 112.539 101.584 112.628C101.618 112.718 101.634 112.814 101.629 112.91C101.619 113.098 101.55 113.277 101.432 113.424L99.2408 116.343V118.279C99.2408 118.473 99.1635 118.659 99.0258 118.797C98.8882 118.934 98.7015 119.011 98.5068 119.011C98.3122 119.011 98.1255 118.934 97.9878 118.797C97.8502 118.659 97.7728 118.473 97.7728 118.279V116.376H97.8167Z" fill="#80C342"/>
<path d="M102.023 115.622C102.023 115.157 102.117 114.698 102.298 114.27C102.479 113.842 102.745 113.455 103.079 113.131C103.413 112.808 103.809 112.555 104.243 112.387C104.677 112.22 105.141 112.141 105.606 112.156C106.068 112.139 106.529 112.217 106.96 112.383C107.392 112.549 107.785 112.8 108.116 113.122C108.448 113.444 108.711 113.829 108.889 114.255C109.068 114.681 109.158 115.138 109.155 115.6V115.6C109.105 116.51 108.707 117.366 108.044 117.992C107.38 118.618 106.502 118.967 105.589 118.967C104.676 118.967 103.798 118.618 103.135 117.992C102.472 117.366 102.074 116.51 102.023 115.6V115.622ZM107.621 115.622C107.63 115.349 107.584 115.077 107.486 114.822C107.387 114.567 107.239 114.334 107.049 114.137C106.859 113.941 106.631 113.784 106.38 113.676C106.128 113.569 105.858 113.513 105.584 113.512C105.312 113.51 105.043 113.563 104.792 113.669C104.542 113.774 104.316 113.929 104.127 114.124C103.939 114.32 103.792 114.551 103.696 114.805C103.6 115.059 103.556 115.329 103.568 115.6V115.6C103.559 115.873 103.605 116.144 103.704 116.399C103.802 116.653 103.951 116.885 104.141 117.081C104.331 117.277 104.559 117.432 104.81 117.539C105.062 117.645 105.332 117.7 105.606 117.699C105.877 117.7 106.146 117.645 106.395 117.539C106.645 117.434 106.871 117.278 107.059 117.083C107.247 116.888 107.394 116.657 107.491 116.404C107.587 116.151 107.632 115.882 107.621 115.611V115.622Z" fill="#80C342"/>
<path d="M110.371 116.081V112.932C110.393 112.752 110.48 112.586 110.617 112.465C110.753 112.345 110.928 112.278 111.11 112.278C111.292 112.278 111.468 112.345 111.604 112.465C111.74 112.586 111.828 112.752 111.85 112.932V116.048C111.85 117.142 112.398 117.699 113.296 117.699C114.194 117.699 114.742 117.153 114.742 116.092V112.932C114.764 112.752 114.851 112.586 114.988 112.465C115.124 112.345 115.299 112.278 115.481 112.278C115.663 112.278 115.839 112.345 115.975 112.465C116.111 112.586 116.199 112.752 116.221 112.932V116.037C116.272 116.44 116.232 116.848 116.103 117.233C115.975 117.618 115.761 117.969 115.478 118.26C115.195 118.551 114.85 118.774 114.468 118.914C114.087 119.053 113.678 119.106 113.274 119.066C112.876 119.104 112.474 119.051 112.099 118.913C111.724 118.775 111.384 118.555 111.106 118.268C110.827 117.982 110.616 117.636 110.489 117.258C110.362 116.879 110.322 116.477 110.371 116.081V116.081Z" fill="#80C342"/>
<path d="M117.733 112.997C117.731 112.9 117.749 112.804 117.785 112.714C117.821 112.624 117.875 112.542 117.944 112.472C118.012 112.403 118.093 112.348 118.183 112.311C118.273 112.273 118.369 112.254 118.466 112.254H120.8C121.155 112.233 121.512 112.281 121.848 112.398C122.185 112.514 122.495 112.696 122.761 112.932C122.953 113.136 123.102 113.377 123.2 113.64C123.298 113.903 123.342 114.183 123.33 114.463V114.463C123.356 114.901 123.24 115.337 122.999 115.705C122.759 116.073 122.406 116.354 121.994 116.507L123.013 117.743C123.159 117.898 123.244 118.099 123.254 118.312C123.254 118.403 123.236 118.493 123.2 118.576C123.165 118.66 123.113 118.736 123.047 118.799C122.982 118.862 122.904 118.912 122.819 118.944C122.734 118.977 122.644 118.993 122.553 118.99C122.41 118.988 122.27 118.953 122.144 118.886C122.018 118.82 121.911 118.724 121.83 118.607L120.384 116.792H119.211V118.257C119.189 118.437 119.102 118.603 118.966 118.724C118.83 118.844 118.654 118.911 118.472 118.911C118.29 118.911 118.114 118.844 117.978 118.724C117.842 118.603 117.755 118.437 117.733 118.257V112.976V112.997ZM120.701 115.512C121.424 115.512 121.797 115.13 121.797 114.561C121.797 113.938 121.348 113.61 120.636 113.61H119.168V115.501L120.701 115.512Z" fill="#80C342"/>
<path d="M78.8753 68.3081C77.2495 70.0513 75.7138 71.8761 74.2742 73.7754M71.0644 78.5101C60.1095 95.885 59.4303 113.501 59.9343 118.399C60.5368 124.337 61.0297 127.147 60.0329 129.06C59.036 130.974 51.6743 134.987 54.0953 139.711C56.5163 144.434 62.8592 143.33 67.1864 142.532C71.5136 141.734 75.0411 141.526 78.9739 143.33C86.4232 147.704 102.538 148.36 109.385 148.36H109.483C116.352 148.36 127.953 147.037 135.063 144.642C142.173 142.247 146.248 141.624 153.686 142.925C161.125 144.227 164.466 142.827 165.266 139.208C166.065 135.588 160.884 131.072 159.131 129.563C157.378 128.054 157.619 125.638 157.915 123.932C158.211 122.226 159.931 116.092 158.824 109.717C154.694 77.7556 132.434 60.0635 128.304 57.3517C124.174 54.64 123.922 47.3904 128.512 42.0434C133.102 36.6964 135.359 29.2828 134.756 27.8285C134.154 26.3742 132.741 25.6416 130.528 26.6257C128.315 27.6098 118.937 32.6506 111.992 32.9568C111.061 32.9568 110.228 32.9568 109.472 32.9568C104.597 32.8256 102.899 31.4587 98.3969 29.1078C93.1276 26.5273 86.0179 24.7449 84.2103 26.0243C81.2854 28.6376 87.3325 37.5821 92.1636 45.2253C94.3545 49.1508 94.6832 53.0654 93.3686 54.3775C92.4155 55.3835 90.0821 57.3955 87.3653 59.8448C85.7111 61.3647 83.9145 63.0486 82.1617 64.8091L71.0644 78.5101Z" stroke="#80C342" stroke-width="3" stroke-linecap="round" stroke-linejoin="round"/>
<path d="M78.8861 133.839C78.6532 133.665 78.481 133.423 78.3941 133.146C78.3073 132.869 78.3102 132.572 78.4025 132.297C78.4947 132.022 78.6717 131.783 78.908 131.614C79.1444 131.445 79.4281 131.355 79.7187 131.357C80.0219 131.356 80.3174 131.452 80.5622 131.63C81.5459 132.405 82.7598 132.832 84.013 132.844C85.229 132.844 85.963 132.363 85.963 131.575C85.963 130.832 85.5029 130.482 83.2462 129.87C80.5294 129.17 78.7766 128.426 78.7766 125.747C78.7766 123.298 80.7375 121.691 83.4981 121.691C85.0081 121.665 86.4928 122.079 87.7706 122.882C87.9739 123.002 88.1418 123.173 88.2572 123.379C88.3727 123.584 88.4316 123.817 88.4279 124.052C88.408 124.409 88.249 124.744 87.9848 124.985C87.7207 125.226 87.3724 125.355 87.0147 125.343C86.752 125.343 86.4943 125.271 86.2697 125.135C85.4235 124.582 84.443 124.269 83.4324 124.227C82.3369 124.227 81.7015 124.741 81.7015 125.397C81.7015 126.283 82.2822 126.567 84.6046 127.158C87.3433 127.88 88.888 128.853 88.888 131.204C88.888 133.883 86.8394 135.381 83.9363 135.381C82.1333 135.403 80.3681 134.864 78.8861 133.839V133.839Z" fill="#80C342"/>
<path d="M91.2539 129.498V123.156C91.2859 122.785 91.4561 122.439 91.7309 122.187C92.0058 121.936 92.3653 121.796 92.7383 121.796C93.1113 121.796 93.4708 121.936 93.7457 122.187C94.0205 122.439 94.1907 122.785 94.2227 123.156V129.41C94.2227 131.597 95.3182 132.691 97.1367 132.691C98.9552 132.691 100.04 131.597 100.04 129.41V123.156C100.072 122.785 100.242 122.439 100.517 122.187C100.792 121.936 101.151 121.796 101.524 121.796C101.897 121.796 102.257 121.936 102.531 122.187C102.806 122.439 102.977 122.785 103.009 123.156V129.388C103.009 133.467 100.719 135.468 97.0929 135.468C93.4668 135.468 91.2539 133.445 91.2539 129.487V129.498Z" fill="#80C342"/>
<path d="M106.043 123.287C106.04 123.092 106.077 122.898 106.15 122.717C106.223 122.536 106.332 122.371 106.469 122.233C106.607 122.094 106.771 121.985 106.952 121.91C107.133 121.836 107.327 121.798 107.522 121.8H111.554C114.763 121.8 116.713 123.702 116.713 126.458C116.713 129.574 114.292 131.193 111.236 131.193H108.979V133.872C108.979 134.263 108.823 134.639 108.546 134.915C108.269 135.192 107.893 135.348 107.5 135.348C107.108 135.348 106.732 135.192 106.455 134.915C106.177 134.639 106.021 134.263 106.021 133.872V123.254L106.043 123.287ZM111.357 128.59C111.648 128.627 111.944 128.602 112.225 128.517C112.506 128.433 112.767 128.29 112.989 128.098C113.211 127.906 113.39 127.67 113.515 127.404C113.639 127.138 113.706 126.85 113.712 126.556C113.712 125.233 112.781 124.523 111.302 124.523H109.001V128.623L111.357 128.59Z" fill="#80C342"/>
<path d="M118.915 133.784V123.287C118.912 123.092 118.948 122.898 119.022 122.717C119.095 122.536 119.203 122.371 119.341 122.233C119.479 122.094 119.643 121.985 119.824 121.91C120.005 121.836 120.199 121.798 120.394 121.8H127.876C128.229 121.803 128.566 121.945 128.814 122.194C129.063 122.444 129.202 122.782 129.202 123.134C129.2 123.306 129.165 123.477 129.098 123.635C129.03 123.794 128.932 123.938 128.809 124.058C128.686 124.179 128.54 124.275 128.38 124.339C128.22 124.404 128.049 124.437 127.876 124.435H121.862V127.169H127C127.352 127.169 127.691 127.308 127.941 127.556C128.191 127.803 128.334 128.14 128.336 128.492C128.335 128.666 128.299 128.837 128.231 128.997C128.163 129.157 128.065 129.302 127.94 129.424C127.816 129.546 127.669 129.642 127.508 129.707C127.347 129.773 127.174 129.805 127 129.804H121.862V132.636H127.964C128.147 132.619 128.332 132.641 128.507 132.7C128.682 132.758 128.842 132.853 128.978 132.976C129.114 133.1 129.223 133.251 129.297 133.42C129.371 133.588 129.41 133.77 129.41 133.954C129.41 134.137 129.371 134.319 129.297 134.488C129.223 134.656 129.114 134.807 128.978 134.931C128.842 135.055 128.682 135.149 128.507 135.208C128.332 135.266 128.147 135.288 127.964 135.271H120.394C120.199 135.273 120.005 135.235 119.824 135.161C119.643 135.086 119.479 134.977 119.341 134.838C119.203 134.7 119.095 134.535 119.022 134.354C118.948 134.173 118.912 133.979 118.915 133.784V133.784Z" fill="#80C342"/>
<path d="M131.82 123.287C131.819 123.091 131.856 122.897 131.93 122.716C132.005 122.535 132.114 122.37 132.253 122.232C132.392 122.094 132.557 121.984 132.738 121.91C132.919 121.836 133.114 121.798 133.31 121.8H138.042C138.756 121.755 139.472 121.852 140.147 122.087C140.822 122.322 141.444 122.689 141.975 123.167C142.366 123.577 142.67 124.061 142.87 124.591C143.069 125.12 143.16 125.685 143.136 126.25C143.187 127.133 142.951 128.009 142.464 128.748C141.977 129.487 141.263 130.049 140.431 130.351L142.424 132.887C142.711 133.183 142.882 133.571 142.906 133.981C142.905 134.164 142.867 134.344 142.795 134.512C142.723 134.68 142.618 134.833 142.487 134.96C142.355 135.087 142.2 135.187 142.029 135.253C141.858 135.32 141.676 135.352 141.493 135.348C141.205 135.348 140.921 135.278 140.665 135.145C140.409 135.012 140.19 134.819 140.025 134.582L137.144 130.93H134.756V133.872C134.724 134.243 134.554 134.588 134.279 134.84C134.004 135.092 133.645 135.231 133.272 135.231C132.898 135.231 132.539 135.092 132.264 134.84C131.989 134.588 131.819 134.243 131.787 133.872V123.254L131.82 123.287ZM137.801 128.339C139.236 128.339 140.069 127.573 140.069 126.436C140.069 125.168 139.182 124.512 137.736 124.512H134.756V128.371L137.801 128.339Z" fill="#80C342"/>
<path d="M168.772 49.7632C170.645 53.5028 187.504 55.3726 193.124 49.7632M25.7334 52.475C27.6067 56.0834 44.4663 57.9422 50.0861 52.475H25.7334ZM91.3971 50.5395C94.0262 55.7881 118.357 58.6202 126.245 50.7473L91.3971 50.5395Z" stroke="#80C342" stroke-width="3" stroke-linecap="round"/>
<path d="M173.098 101.221C173 101.045 172.866 100.892 172.704 100.773C172.515 100.643 172.308 100.54 172.09 100.467C171.828 100.38 171.561 100.307 171.291 100.248L170.787 100.106C170.685 100.075 170.585 100.035 170.491 99.9855C170.397 99.9379 170.315 99.8707 170.25 99.7887C170.194 99.7086 170.163 99.6132 170.162 99.5153C170.166 99.4276 170.191 99.342 170.235 99.2659C170.279 99.1897 170.34 99.1253 170.414 99.0779C170.612 98.9492 170.847 98.8878 171.083 98.903C171.307 98.8854 171.53 98.9431 171.718 99.067C171.865 99.1921 171.981 99.3492 172.058 99.5262C172.109 99.6361 172.179 99.7361 172.266 99.8215C172.302 99.8559 172.345 99.8825 172.392 99.8994C172.439 99.9164 172.49 99.9233 172.54 99.9199C172.604 99.9201 172.667 99.9066 172.726 99.8802C172.785 99.8538 172.837 99.8151 172.879 99.7668C172.963 99.6736 173.01 99.553 173.011 99.4278C173.011 99.2788 172.973 99.1321 172.901 99.0014C172.818 98.8407 172.703 98.6991 172.561 98.5859C172.387 98.4479 172.191 98.3407 171.981 98.2688C171.711 98.1851 171.43 98.1445 171.148 98.1485C170.774 98.1372 170.402 98.2004 170.053 98.3344C169.781 98.4355 169.545 98.6142 169.374 98.8483C169.218 99.0727 169.137 99.3407 169.144 99.6137C169.137 99.8817 169.213 100.145 169.363 100.368C169.523 100.574 169.729 100.739 169.965 100.849C170.269 100.979 170.585 101.081 170.907 101.156L171.586 101.33C171.738 101.385 171.876 101.471 171.992 101.582C172.045 101.639 172.086 101.706 172.113 101.779C172.139 101.853 172.15 101.931 172.145 102.008C172.143 102.115 172.117 102.22 172.067 102.315C172.018 102.41 171.947 102.492 171.86 102.555C171.634 102.707 171.366 102.783 171.093 102.774C170.902 102.778 170.711 102.741 170.535 102.664C170.407 102.597 170.298 102.499 170.217 102.38C170.126 102.252 170.053 102.112 169.998 101.965C169.953 101.847 169.886 101.74 169.801 101.648C169.721 101.581 169.62 101.546 169.516 101.549C169.453 101.546 169.391 101.556 169.332 101.579C169.274 101.601 169.221 101.636 169.176 101.68C169.092 101.769 169.045 101.886 169.045 102.008C169.055 102.253 169.13 102.491 169.264 102.697C169.412 102.925 169.611 103.116 169.845 103.255C170.235 103.462 170.674 103.56 171.115 103.539C171.491 103.549 171.865 103.478 172.211 103.331C172.405 103.248 172.581 103.128 172.727 102.976C172.874 102.824 172.989 102.645 173.066 102.448C173.142 102.252 173.179 102.042 173.173 101.831C173.167 101.621 173.12 101.413 173.033 101.221H173.098ZM174.27 102.315C174.345 102.578 174.484 102.819 174.676 103.014C174.877 103.204 175.122 103.343 175.388 103.419C175.723 103.509 176.07 103.549 176.418 103.539C176.718 103.548 177.018 103.508 177.305 103.419C177.56 103.334 177.792 103.191 177.982 103.001C178.172 102.812 178.315 102.58 178.4 102.325C178.483 101.989 178.519 101.644 178.51 101.298V98.7936C178.527 98.6209 178.476 98.4483 178.368 98.3125C178.32 98.2589 178.26 98.2164 178.194 98.188C178.128 98.1597 178.056 98.1462 177.984 98.1485C177.912 98.1454 177.84 98.1586 177.774 98.187C177.707 98.2154 177.648 98.2583 177.601 98.3125C177.492 98.4483 177.441 98.6209 177.458 98.7936V101.374C177.485 101.729 177.392 102.083 177.195 102.38C177.086 102.5 176.949 102.592 176.797 102.649C176.644 102.706 176.481 102.727 176.319 102.708C176.078 102.722 175.838 102.665 175.629 102.544C175.46 102.439 175.335 102.275 175.278 102.085C175.207 101.848 175.173 101.6 175.18 101.352V98.7936C175.194 98.6211 175.144 98.4493 175.037 98.3125C174.988 98.258 174.926 98.2151 174.858 98.1867C174.79 98.1584 174.717 98.1453 174.643 98.1485C174.571 98.1462 174.499 98.1597 174.433 98.188C174.367 98.2164 174.307 98.2589 174.259 98.3125C174.158 98.4516 174.107 98.6216 174.117 98.7936V101.287C174.11 101.63 174.155 101.973 174.248 102.304L174.27 102.315ZM183.177 101.013C183.343 100.863 183.473 100.676 183.557 100.468C183.641 100.259 183.675 100.034 183.659 99.8105C183.666 99.5786 183.625 99.3477 183.538 99.1326C183.462 98.9403 183.342 98.7681 183.188 98.6296C183.03 98.485 182.838 98.3833 182.629 98.3344C182.328 98.2584 182.019 98.2253 181.709 98.236H180.328C180.144 98.2224 179.961 98.2768 179.814 98.3891C179.698 98.5299 179.643 98.7107 179.66 98.892V102.905C179.646 103.077 179.697 103.249 179.803 103.386C179.852 103.438 179.911 103.478 179.978 103.505C180.044 103.531 180.115 103.543 180.186 103.539C180.257 103.541 180.328 103.528 180.393 103.502C180.459 103.476 180.519 103.436 180.569 103.386C180.675 103.249 180.726 103.077 180.712 102.905V101.429H181.687C182.21 101.465 182.729 101.318 183.155 101.013H183.177ZM182.388 99.2638C182.527 99.4199 182.602 99.6233 182.596 99.8324C182.603 99.9956 182.556 100.156 182.465 100.292C182.366 100.415 182.232 100.506 182.081 100.554C181.873 100.606 181.66 100.631 181.446 100.631H180.767V99.0342H181.479C181.81 98.9924 182.146 99.0742 182.421 99.2638H182.388ZM188.369 98.9467C188.446 98.8673 188.488 98.7615 188.488 98.6515C188.488 98.5414 188.446 98.4357 188.369 98.3563C188.261 98.2701 188.124 98.2272 187.986 98.236H185.149C185.023 98.2293 184.899 98.2557 184.787 98.3125C184.692 98.3544 184.615 98.4278 184.568 98.5203C184.519 98.6379 184.497 98.7648 184.502 98.892V102.807C184.487 102.984 184.542 103.161 184.656 103.299C184.723 103.357 184.801 103.401 184.886 103.427C184.971 103.454 185.06 103.462 185.149 103.452H188.03C188.163 103.463 188.296 103.424 188.402 103.342C188.446 103.305 188.48 103.257 188.503 103.204C188.526 103.151 188.536 103.094 188.534 103.036C188.536 102.979 188.525 102.921 188.502 102.869C188.479 102.816 188.445 102.768 188.402 102.73C188.296 102.649 188.163 102.61 188.03 102.621H185.587V101.134H187.778C187.842 101.14 187.907 101.134 187.969 101.115C188.031 101.096 188.089 101.065 188.139 101.024C188.181 100.988 188.213 100.942 188.234 100.891C188.255 100.839 188.264 100.784 188.26 100.729C188.261 100.676 188.25 100.623 188.23 100.574C188.209 100.525 188.178 100.481 188.139 100.445C188.089 100.404 188.031 100.373 187.969 100.354C187.907 100.335 187.842 100.329 187.778 100.335H185.587V99.0998H187.964C188.101 99.1127 188.238 99.0737 188.347 98.9905L188.369 98.9467ZM191.283 101.287C191.424 101.353 191.547 101.45 191.645 101.571C191.804 101.753 191.943 101.951 192.061 102.161L192.477 102.861C192.576 103.025 192.664 103.157 192.718 103.233C192.77 103.321 192.841 103.396 192.927 103.452C193.015 103.508 193.118 103.535 193.222 103.528C193.313 103.534 193.404 103.515 193.485 103.474C193.564 103.441 193.629 103.383 193.672 103.31C193.713 103.252 193.736 103.184 193.737 103.113C193.716 102.985 193.679 102.86 193.628 102.741C193.534 102.538 193.428 102.341 193.31 102.151C193.176 101.929 193.022 101.72 192.85 101.527C192.695 101.354 192.514 101.206 192.313 101.09C192.687 101.029 193.034 100.858 193.31 100.598C193.537 100.343 193.655 100.009 193.639 99.6684C193.64 99.4817 193.606 99.2963 193.54 99.1217C193.477 98.9543 193.38 98.8017 193.255 98.6734C193.127 98.5505 192.979 98.4507 192.817 98.3781C192.673 98.3188 192.522 98.2783 192.368 98.2578C192.164 98.2451 191.959 98.2451 191.754 98.2578H190.035C189.856 98.2421 189.679 98.2971 189.542 98.4109C189.43 98.5539 189.375 98.7331 189.388 98.9139V102.927C189.374 103.099 189.425 103.271 189.531 103.408C189.58 103.46 189.639 103.5 189.705 103.527C189.772 103.553 189.843 103.565 189.914 103.561C189.985 103.566 190.057 103.555 190.123 103.529C190.19 103.502 190.249 103.461 190.297 103.408C190.41 103.274 190.465 103.101 190.451 102.927V101.243H190.812C190.973 101.242 191.132 101.268 191.283 101.32V101.287ZM192.149 99.0998C192.275 99.1488 192.383 99.2369 192.456 99.3513C192.531 99.4645 192.569 99.5982 192.565 99.734C192.573 99.8906 192.527 100.045 192.434 100.171C192.326 100.28 192.189 100.356 192.039 100.39C191.827 100.438 191.61 100.46 191.393 100.456H190.451V99.0233H191.426C191.669 99.0065 191.914 99.0324 192.149 99.0998V99.0998Z" fill="#80C342"/>
<path d="M170.316 91.5111C170.013 91.6283 169.74 91.8113 169.516 92.0469C169.294 92.2956 169.123 92.5854 169.012 92.8998C168.892 93.2518 168.833 93.6215 168.837 93.9933C168.834 94.3641 168.889 94.7332 169.001 95.0867C169.101 95.4069 169.269 95.7016 169.494 95.9506C169.719 96.1954 169.996 96.3861 170.305 96.5082C170.654 96.6445 171.026 96.7114 171.401 96.705C171.775 96.7123 172.147 96.6454 172.496 96.5082C172.806 96.3929 173.084 96.2054 173.307 95.9615C173.526 95.7103 173.69 95.4161 173.789 95.0977C173.903 94.7445 173.958 94.3752 173.953 94.0042C173.964 93.5106 173.863 93.021 173.657 92.5718C173.467 92.1762 173.157 91.8509 172.77 91.6423C172.343 91.4125 171.863 91.2993 171.379 91.3143C171.005 91.3056 170.633 91.3687 170.283 91.5002L170.316 91.5111ZM172.682 95.043C172.568 95.3013 172.382 95.5214 172.145 95.6772C171.915 95.8083 171.655 95.8762 171.39 95.874C171.183 95.8832 170.978 95.8456 170.788 95.7642C170.598 95.6828 170.429 95.5596 170.294 95.4038C170.15 95.2302 170.042 95.0294 169.976 94.8134C169.904 94.5497 169.867 94.2776 169.867 94.0042C169.867 93.7344 169.904 93.4659 169.976 93.206C170.045 92.9968 170.149 92.8008 170.283 92.6265C170.413 92.4769 170.574 92.3575 170.754 92.2766C170.938 92.2006 171.136 92.1634 171.335 92.1672C171.616 92.1548 171.893 92.2289 172.131 92.3795C172.368 92.5302 172.553 92.75 172.66 93.0092C172.789 93.3249 172.852 93.6634 172.847 94.0042C172.864 94.3799 172.793 94.7544 172.638 95.0977L172.682 95.043ZM178.379 92.1672C178.425 92.1288 178.462 92.0802 178.487 92.0252C178.512 91.9702 178.523 91.9103 178.521 91.8501C178.524 91.7909 178.514 91.7317 178.491 91.677C178.468 91.6222 178.434 91.573 178.39 91.533C178.269 91.4463 178.122 91.4038 177.973 91.4127H174.61C174.469 91.4033 174.328 91.4461 174.216 91.533C174.171 91.5725 174.135 91.6212 174.11 91.676C174.085 91.7307 174.073 91.7901 174.074 91.8501C174.076 91.9686 174.123 92.0818 174.205 92.1672C174.322 92.254 174.465 92.2966 174.61 92.2875H175.772V96.0708C175.755 96.2436 175.806 96.4162 175.914 96.552C175.963 96.6043 176.023 96.6459 176.088 96.6744C176.154 96.7029 176.226 96.7176 176.297 96.7176C176.369 96.7176 176.44 96.7029 176.506 96.6744C176.572 96.6459 176.632 96.6043 176.681 96.552C176.784 96.4137 176.835 96.2431 176.823 96.0708V92.2875H177.919C178.064 92.2986 178.208 92.2558 178.324 92.1672H178.379ZM180.066 91.4783C180.014 91.4275 179.952 91.3877 179.884 91.3614C179.817 91.335 179.744 91.3228 179.672 91.3252C179.602 91.3224 179.533 91.3347 179.468 91.3611C179.404 91.3875 179.346 91.4275 179.299 91.4783C179.194 91.6156 179.143 91.787 179.157 91.9594V96.0708C179.142 96.2434 179.193 96.4151 179.299 96.552C179.344 96.606 179.402 96.6489 179.466 96.6773C179.531 96.7058 179.601 96.719 179.672 96.716C179.745 96.7177 179.818 96.704 179.886 96.6757C179.954 96.6475 180.015 96.6053 180.066 96.552C180.174 96.4162 180.225 96.2436 180.208 96.0708V94.3213H182.498V96.0708C182.483 96.2434 182.534 96.4151 182.64 96.552C182.686 96.6054 182.743 96.6478 182.808 96.6762C182.872 96.7046 182.942 96.7182 183.013 96.716C183.087 96.7191 183.16 96.7061 183.228 96.6777C183.296 96.6494 183.357 96.6065 183.407 96.552C183.516 96.4162 183.567 96.2436 183.55 96.0708V91.9594C183.563 91.787 183.513 91.6156 183.407 91.4783C183.355 91.4275 183.293 91.3877 183.226 91.3614C183.158 91.335 183.085 91.3228 183.013 91.3252C182.943 91.3238 182.875 91.3367 182.811 91.363C182.746 91.3894 182.688 91.4286 182.64 91.4783C182.535 91.6156 182.484 91.787 182.498 91.9594V93.4575H180.208V91.9594C180.222 91.787 180.171 91.6156 180.066 91.4783V91.4783ZM188.512 92.1125C188.588 92.0331 188.631 91.9273 188.631 91.8173C188.631 91.7073 188.588 91.6015 188.512 91.5221C188.403 91.4388 188.266 91.3998 188.129 91.4127H185.335C185.211 91.4082 185.088 91.4305 184.974 91.4783C184.877 91.5168 184.798 91.5912 184.755 91.6861C184.707 91.804 184.684 91.9307 184.689 92.0579V95.9834C184.677 96.1608 184.731 96.3363 184.842 96.4754C184.98 96.5892 185.157 96.6442 185.335 96.6285H188.216C188.351 96.6377 188.485 96.5947 188.589 96.5082C188.632 96.472 188.666 96.4267 188.688 96.3756C188.711 96.3245 188.722 96.2689 188.72 96.213C188.723 96.1554 188.712 96.0979 188.69 96.0449C188.667 95.9919 188.632 95.9447 188.589 95.9068C188.485 95.8204 188.351 95.7773 188.216 95.7865H185.751V94.2994H187.942C188.007 94.3058 188.072 94.2995 188.134 94.2807C188.196 94.2619 188.254 94.2312 188.304 94.1901C188.342 94.1533 188.373 94.1091 188.393 94.0602C188.414 94.0114 188.425 93.9588 188.424 93.9058C188.425 93.851 188.415 93.7966 188.395 93.7458C188.374 93.6951 188.343 93.6491 188.304 93.6106C188.199 93.5364 188.071 93.5015 187.942 93.5122H185.751V92.2219H188.129C188.266 92.2348 188.403 92.1958 188.512 92.1125V92.1125ZM191.448 94.4744C191.588 94.5362 191.712 94.6298 191.81 94.7478C191.968 94.9278 192.104 95.126 192.215 95.3382L192.642 96.038C192.714 96.1706 192.795 96.2984 192.883 96.4207C192.935 96.5053 193.007 96.5765 193.091 96.6285C193.178 96.6878 193.282 96.7184 193.387 96.716C193.474 96.7336 193.563 96.7336 193.65 96.716C193.724 96.6763 193.788 96.6201 193.836 96.552C193.879 96.4911 193.902 96.4186 193.902 96.3442C193.881 96.2183 193.841 96.0964 193.781 95.9834C193.696 95.7781 193.594 95.5805 193.475 95.3929C193.341 95.1713 193.187 94.9626 193.015 94.7696C192.861 94.5924 192.68 94.4411 192.478 94.3213C192.855 94.2697 193.205 94.0969 193.475 93.8293C193.703 93.5751 193.821 93.2408 193.803 92.8998C193.805 92.7166 193.771 92.5348 193.705 92.364C193.644 92.1953 193.547 92.0421 193.42 91.9157C193.298 91.7859 193.148 91.685 192.982 91.6205C192.84 91.5561 192.688 91.5155 192.533 91.5002C192.328 91.4875 192.123 91.4875 191.919 91.5002H190.199C190.021 91.4845 189.844 91.5395 189.706 91.6533C189.648 91.72 189.604 91.7983 189.577 91.8831C189.551 91.9678 189.542 92.0572 189.553 92.1453V96.1583C189.542 96.3288 189.588 96.4982 189.684 96.6394C189.734 96.6939 189.795 96.7369 189.863 96.7652C189.931 96.7936 190.005 96.8066 190.079 96.8035C190.15 96.8057 190.22 96.7933 190.286 96.767C190.352 96.7406 190.412 96.7009 190.462 96.6504C190.569 96.5097 190.62 96.3343 190.604 96.1583V94.3978H190.977C191.138 94.3912 191.298 94.4172 191.448 94.4744V94.4744ZM192.313 92.2875C192.437 92.336 192.544 92.4196 192.62 92.528C192.696 92.6412 192.734 92.7749 192.73 92.9107C192.738 93.0673 192.691 93.2219 192.598 93.3481C192.49 93.4642 192.348 93.5444 192.193 93.5778C191.985 93.6259 191.771 93.6479 191.558 93.6434H190.626V92.2H191.612C191.857 92.1851 192.102 92.2147 192.335 92.2875H192.313Z" fill="#80C342"/>
<path d="M29.2164 101.221C29.1185 101.045 28.984 100.892 28.822 100.773C28.6328 100.643 28.4263 100.54 28.2086 100.467C27.9459 100.38 27.6789 100.307 27.4088 100.248L26.9049 100.106C26.7998 100.073 26.6973 100.033 26.5982 99.9855C26.5078 99.9377 26.4293 99.8705 26.3681 99.7887C26.3117 99.7086 26.2812 99.6132 26.2805 99.5153C26.2842 99.4276 26.309 99.342 26.3529 99.2659C26.3968 99.1898 26.4583 99.1253 26.5324 99.0779C26.7274 98.9515 26.9576 98.8902 27.1897 98.903C27.4175 98.8838 27.6452 98.9415 27.8361 99.067C27.9831 99.1921 28.0992 99.3492 28.1757 99.5263C28.2271 99.6362 28.2975 99.7361 28.3838 99.8215C28.4202 99.856 28.4633 99.8825 28.5104 99.8994C28.5575 99.9164 28.6077 99.9233 28.6577 99.9199C28.7218 99.9188 28.7849 99.9046 28.8433 99.8783C28.9017 99.852 28.9541 99.8141 28.9973 99.7668C29.081 99.6736 29.1278 99.5531 29.1288 99.4279C29.1235 99.2795 29.0862 99.134 29.0192 99.0014C28.9328 98.8431 28.8176 98.7022 28.6796 98.5859C28.5056 98.4479 28.3092 98.3407 28.099 98.2688C27.8296 98.1851 27.5486 98.1445 27.2664 98.1485C26.8924 98.136 26.5198 98.1993 26.1709 98.3344C25.8973 98.4325 25.6603 98.6118 25.4917 98.8483C25.3358 99.0727 25.2553 99.3407 25.2617 99.6137C25.2505 99.8823 25.3275 100.147 25.4808 100.368C25.6408 100.574 25.8473 100.739 26.0833 100.849C26.3877 100.979 26.7029 101.081 27.0254 101.156C27.3102 101.221 27.5293 101.276 27.6937 101.33C27.8496 101.382 27.9918 101.468 28.11 101.582C28.2138 101.699 28.2687 101.852 28.2633 102.008C28.2622 102.117 28.2346 102.223 28.1831 102.318C28.1316 102.414 28.0576 102.495 27.9675 102.555C27.7461 102.708 27.4807 102.785 27.2117 102.774C27.0197 102.778 26.8292 102.741 26.653 102.664C26.5225 102.597 26.4098 102.5 26.3243 102.38C26.2376 102.251 26.1677 102.111 26.1162 101.965C26.0713 101.847 26.0044 101.74 25.919 101.648C25.8392 101.581 25.7379 101.546 25.6341 101.549C25.5715 101.546 25.5089 101.556 25.4504 101.579C25.3919 101.601 25.3388 101.636 25.2945 101.68C25.2106 101.769 25.1636 101.886 25.1631 102.008C25.1676 102.254 25.2438 102.494 25.3822 102.697C25.5271 102.928 25.7264 103.119 25.9628 103.255C26.353 103.462 26.792 103.56 27.2336 103.539C27.6092 103.546 27.9822 103.476 28.3291 103.331C28.6195 103.209 28.8673 103.004 29.0411 102.741C29.1849 102.517 29.2702 102.26 29.2893 101.995C29.3084 101.73 29.2608 101.464 29.1507 101.221H29.2164ZM30.3886 102.315C30.4631 102.578 30.6024 102.819 30.7939 103.014C30.9915 103.204 31.232 103.343 31.495 103.419C31.8344 103.509 32.1848 103.549 32.5357 103.539C32.8361 103.548 33.136 103.508 33.4231 103.419C33.669 103.344 33.894 103.213 34.0804 103.036C34.2931 102.845 34.4486 102.599 34.5295 102.326C34.6213 101.991 34.6619 101.644 34.65 101.298V98.7937C34.6671 98.6209 34.616 98.4483 34.5076 98.3125C34.4579 98.258 34.3969 98.2151 34.3287 98.1867C34.2606 98.1584 34.187 98.1454 34.1132 98.1485C34.0427 98.1455 33.9724 98.1587 33.9078 98.1872C33.8433 98.2156 33.7861 98.2585 33.7408 98.3125C33.6324 98.4483 33.5813 98.6209 33.5984 98.7937V101.374C33.6248 101.729 33.5323 102.083 33.3354 102.38C33.2257 102.5 33.0891 102.592 32.9367 102.649C32.7844 102.706 32.6207 102.727 32.459 102.708C32.2146 102.72 31.9716 102.663 31.7579 102.544C31.5953 102.435 31.4753 102.272 31.4183 102.085C31.3466 101.848 31.3133 101.6 31.3197 101.352V98.7937C31.3295 98.6217 31.2792 98.4516 31.1773 98.3125C31.1276 98.258 31.0666 98.2151 30.9984 98.1867C30.9303 98.1584 30.8567 98.1454 30.783 98.1485C30.7109 98.1462 30.6392 98.1597 30.573 98.188C30.5068 98.2164 30.4475 98.2589 30.3995 98.3125C30.2977 98.4516 30.2473 98.6217 30.2571 98.7937V101.287C30.2503 101.63 30.2946 101.973 30.3886 102.304V102.315ZM39.2839 101.013C39.4526 100.864 39.5847 100.678 39.6702 100.469C39.7556 100.261 39.7921 100.035 39.7769 99.8106C39.7846 99.5787 39.7436 99.3477 39.6564 99.1326C39.5799 98.9403 39.4599 98.7682 39.3059 98.6296C39.1481 98.485 38.9557 98.3834 38.7472 98.3344C38.4466 98.2584 38.1368 98.2253 37.827 98.236H36.4685C36.2839 98.2224 36.1007 98.2768 35.9537 98.3891C35.8379 98.5299 35.7828 98.7108 35.8003 98.8921V102.905C35.7866 103.077 35.8373 103.249 35.9427 103.386C35.9917 103.438 36.0514 103.478 36.1176 103.505C36.1838 103.531 36.2549 103.543 36.3261 103.539C36.3971 103.541 36.4676 103.528 36.5335 103.502C36.5994 103.476 36.6593 103.436 36.7096 103.386C36.815 103.249 36.8657 103.077 36.852 102.905V101.429H37.827C38.3467 101.468 38.8633 101.32 39.2839 101.013V101.013ZM38.5062 99.2638C38.6417 99.4216 38.7122 99.6248 38.7033 99.8324C38.7097 99.9956 38.6637 100.157 38.5719 100.292C38.4771 100.42 38.3421 100.512 38.1885 100.554C37.9845 100.607 37.7746 100.632 37.564 100.631H36.852V99.0342H37.564C37.8956 98.9945 38.2303 99.0761 38.5062 99.2638V99.2638ZM44.4875 98.9467C44.5639 98.8673 44.6065 98.7615 44.6065 98.6515C44.6065 98.5415 44.5639 98.4357 44.4875 98.3563C44.3791 98.2701 44.2424 98.2272 44.1041 98.236H41.3106C41.1855 98.2293 41.0607 98.2557 40.9491 98.3125C40.852 98.351 40.7735 98.4254 40.73 98.5203C40.6812 98.638 40.6588 98.7648 40.6643 98.8921V102.807C40.6485 102.984 40.7036 103.161 40.8176 103.299C40.8845 103.357 40.9629 103.401 41.0478 103.427C41.1328 103.454 41.2223 103.462 41.3106 103.452H44.1917C44.3252 103.463 44.4581 103.424 44.5642 103.342C44.6078 103.305 44.6423 103.257 44.6651 103.204C44.6878 103.151 44.6983 103.094 44.6957 103.036C44.6975 102.979 44.6867 102.922 44.664 102.869C44.6413 102.816 44.6072 102.768 44.5642 102.73C44.4581 102.649 44.3252 102.61 44.1917 102.621H41.7269V101.134H43.9179C43.9824 101.14 44.0475 101.134 44.1095 101.115C44.1716 101.096 44.2293 101.065 44.2794 101.024C44.3185 100.986 44.3493 100.94 44.37 100.889C44.3907 100.838 44.4009 100.784 44.3999 100.729C44.4007 100.676 44.3904 100.623 44.3696 100.574C44.3489 100.525 44.3181 100.481 44.2794 100.445C44.2293 100.404 44.1716 100.373 44.1095 100.354C44.0475 100.335 43.9824 100.329 43.9179 100.335H41.7269V99.0998H44.1041C44.2411 99.1128 44.378 99.0737 44.4875 98.9905V98.9467ZM47.4234 101.287C47.5639 101.353 47.6875 101.45 47.785 101.571C47.9395 101.754 48.0753 101.952 48.1903 102.161L48.6175 102.861C48.6891 102.991 48.7697 103.115 48.8585 103.233C48.9103 103.321 48.9815 103.396 49.0667 103.452C49.1547 103.508 49.2582 103.535 49.3625 103.528C49.4534 103.534 49.5441 103.515 49.6254 103.474C49.704 103.441 49.7695 103.383 49.8116 103.31C49.8529 103.252 49.8759 103.184 49.8773 103.113C49.8557 102.984 49.8151 102.858 49.7568 102.741C49.6674 102.538 49.5649 102.341 49.4501 102.151C49.3092 101.934 49.1555 101.726 48.99 101.527C48.8354 101.354 48.6542 101.206 48.4532 101.09C48.8273 101.029 49.1746 100.858 49.4501 100.598C49.6775 100.343 49.7955 100.009 49.7787 99.6684C49.7798 99.4817 49.7464 99.2963 49.6802 99.1217C49.6129 98.9564 49.5164 98.8046 49.3953 98.6734C49.2655 98.5529 49.1177 98.4533 48.9571 98.3781C48.8133 98.3188 48.6623 98.2784 48.508 98.2579C48.3037 98.2451 48.0988 98.2451 47.8945 98.2579H46.1746C46.0852 98.242 45.9933 98.248 45.9068 98.2756C45.8203 98.3031 45.7418 98.3513 45.6782 98.4159C45.6145 98.4805 45.5676 98.5596 45.5415 98.6464C45.5154 98.7332 45.5108 98.825 45.5282 98.9139V102.927C45.517 103.097 45.5633 103.267 45.6597 103.408C45.7116 103.459 45.7733 103.499 45.8411 103.525C45.9089 103.551 45.9814 103.564 46.0541 103.561C46.1253 103.565 46.1964 103.553 46.2626 103.527C46.3288 103.5 46.3885 103.46 46.4375 103.408C46.5459 103.272 46.597 103.1 46.5799 102.927V101.243H46.9524C47.1125 101.242 47.2717 101.268 47.4234 101.32V101.287ZM48.2889 99.0998C48.4136 99.1519 48.5202 99.2393 48.5956 99.3513C48.671 99.4645 48.7092 99.5982 48.7052 99.734C48.7133 99.8906 48.6669 100.045 48.5737 100.171C48.4615 100.28 48.3212 100.356 48.1684 100.39C47.9601 100.438 47.7467 100.46 47.533 100.456H46.5799V99.0233H47.5549C47.8022 99.0059 48.0506 99.0318 48.2889 99.0998V99.0998Z" fill="#80C342"/>
<path d="M29.3485 91.4456C29.2966 91.3947 29.2349 91.3549 29.1671 91.3286C29.0993 91.3023 29.0268 91.29 28.9541 91.2925C28.8848 91.291 28.816 91.3039 28.7519 91.3303C28.6878 91.3566 28.6299 91.3958 28.5817 91.4456C28.4762 91.5828 28.4255 91.7542 28.4392 91.9267V95.9506C28.4238 96.1266 28.4746 96.302 28.5817 96.4426C28.7249 96.5541 28.9044 96.6087 29.0856 96.5957H31.6381C31.7798 96.6051 31.9202 96.5623 32.0324 96.4754C32.0777 96.436 32.1139 96.3872 32.1385 96.3325C32.163 96.2777 32.1755 96.2183 32.1749 96.1583C32.1746 96.1001 32.1617 96.0425 32.1372 95.9897C32.1126 95.9369 32.0769 95.8899 32.0324 95.8522C31.9788 95.8052 31.9162 95.7694 31.8485 95.7469C31.7808 95.7244 31.7092 95.7155 31.6381 95.7209H29.4471V91.9267C29.4608 91.7542 29.4101 91.5828 29.3047 91.4456H29.3485ZM33.7305 91.4456C33.4274 91.5627 33.1542 91.7457 32.9307 91.9813C32.7085 92.23 32.5373 92.5198 32.4268 92.8342C32.2098 93.5471 32.2098 94.3083 32.4268 95.0211C32.5266 95.3413 32.6948 95.636 32.9198 95.885C33.1389 96.1308 33.4128 96.3219 33.7195 96.4426C34.0687 96.5776 34.4406 96.6444 34.815 96.6394C35.1896 96.6473 35.5621 96.5803 35.9105 96.4426C36.2204 96.3273 36.4983 96.1398 36.7211 95.8959C36.9439 95.6454 37.1118 95.3511 37.2141 95.0321C37.3279 94.6789 37.3834 94.3096 37.3784 93.9386C37.3921 93.4436 37.2869 92.9524 37.0717 92.5062C36.8827 92.1135 36.5765 91.7889 36.1953 91.5768C35.7677 91.3493 35.2884 91.2363 34.804 91.2487C34.4304 91.2416 34.0588 91.3046 33.7085 91.4346L33.7305 91.4456ZM36.0967 94.9774C35.9856 95.2378 35.7985 95.4587 35.5599 95.6116C35.3338 95.7427 35.0765 95.8107 34.815 95.8084C34.6147 95.8142 34.4158 95.773 34.2344 95.6881C34.0509 95.6121 33.889 95.4919 33.7633 95.3382C33.6147 95.1675 33.5062 94.9657 33.4456 94.7478C33.3679 94.4852 33.331 94.2123 33.3361 93.9386C33.331 93.6685 33.368 93.3992 33.4456 93.1404C33.5096 92.9294 33.6138 92.7326 33.7524 92.5609C33.8801 92.414 34.0367 92.295 34.2125 92.211C34.4356 92.1247 34.675 92.0888 34.9137 92.1058C35.1523 92.1228 35.3842 92.1923 35.5928 92.3094C35.8287 92.4624 36.0122 92.6836 36.1186 92.9436C36.2473 93.2593 36.3107 93.5978 36.3049 93.9386C36.3282 94.3147 36.2566 94.6907 36.0967 95.0321V94.9774ZM42.111 94.3323C42.0193 94.1521 41.8837 93.998 41.7166 93.884C41.5328 93.7514 41.3296 93.6481 41.1141 93.5778C40.849 93.484 40.5783 93.4073 40.3034 93.3482L39.7995 93.2169C39.697 93.1825 39.598 93.1385 39.5037 93.0857C39.4102 93.0381 39.328 92.971 39.2627 92.8889C39.2042 92.8098 39.1735 92.7138 39.175 92.6155C39.1786 92.5293 39.2035 92.4452 39.2475 92.3708C39.2914 92.2964 39.3531 92.234 39.427 92.1891C39.6237 92.0565 39.8582 91.9913 40.0953 92.0032C40.3214 91.9812 40.5477 92.0435 40.7306 92.1782C40.8776 92.3032 40.9938 92.4604 41.0702 92.6374C41.1273 92.7439 41.1972 92.843 41.2784 92.9326C41.3559 92.9942 41.4533 93.0254 41.5523 93.0201C41.6169 93.0227 41.6812 93.0102 41.7402 92.9836C41.7991 92.9571 41.8511 92.9171 41.8919 92.867C41.9774 92.7749 42.0244 92.6537 42.0233 92.5281C42.022 92.3826 41.9843 92.2398 41.9138 92.1126C41.8337 91.9501 41.7175 91.808 41.5742 91.697C41.4029 91.5551 41.2057 91.4474 40.9936 91.3799C40.7253 91.291 40.4435 91.2503 40.161 91.2597C39.806 91.2498 39.4525 91.3092 39.1203 91.4346C38.8458 91.5366 38.6063 91.715 38.4301 91.9485C38.2775 92.1745 38.1973 92.4414 38.2001 92.714C38.1905 92.9824 38.2673 93.2467 38.4192 93.4684C38.576 93.6771 38.7833 93.8426 39.0217 93.9496C39.3242 94.0841 39.6399 94.1867 39.9638 94.2557C40.2486 94.3213 40.4677 94.3869 40.643 94.4416C40.7962 94.4922 40.9351 94.5784 41.0483 94.6931C41.1027 94.747 41.1446 94.8122 41.1711 94.8839C41.1976 94.9557 41.208 95.0324 41.2017 95.1086C41.2037 95.2162 41.1787 95.3226 41.1289 95.4181C41.0792 95.5136 41.0063 95.5952 40.9169 95.6553C40.6907 95.8071 40.4223 95.8836 40.15 95.874C39.9577 95.8835 39.7659 95.846 39.5913 95.7647C39.4668 95.6976 39.3584 95.6044 39.2736 95.4913C39.1852 95.3615 39.1117 95.2221 39.0545 95.0758C39.0152 94.9559 38.9476 94.8471 38.8573 94.7587C38.8199 94.722 38.7753 94.6933 38.7263 94.6745C38.6773 94.6557 38.625 94.6472 38.5725 94.6494C38.5089 94.6463 38.4453 94.6574 38.3866 94.682C38.3278 94.7066 38.2753 94.744 38.2329 94.7915C38.1899 94.8344 38.156 94.8857 38.1335 94.9421C38.1109 94.9984 38.1 95.0588 38.1015 95.1195C38.1099 95.3615 38.1858 95.5963 38.3206 95.7975C38.4687 96.0254 38.6674 96.2161 38.9012 96.3551C39.2907 96.5652 39.7295 96.6671 40.1719 96.6504C40.5485 96.6563 40.9221 96.5817 41.2674 96.4317C41.5597 96.3122 41.8082 96.1061 41.9795 95.8412C42.1232 95.6191 42.2086 95.3645 42.2277 95.1007C42.2469 94.837 42.1992 94.5727 42.089 94.3323H42.111ZM46.9421 92.1454C46.9885 92.1069 47.0255 92.0583 47.0502 92.0033C47.0749 91.9484 47.0866 91.8885 47.0845 91.8283C47.0872 91.769 47.0768 91.7099 47.0541 91.6551C47.0314 91.6003 46.9969 91.5512 46.953 91.5112C46.8331 91.4227 46.6854 91.3801 46.5367 91.3909H43.1736C43.0318 91.3815 42.8915 91.4242 42.7792 91.5112C42.7353 91.5512 42.7008 91.6003 42.6781 91.6551C42.6554 91.7099 42.645 91.769 42.6477 91.8283C42.6458 91.8874 42.6565 91.9463 42.6791 92.001C42.7018 92.0557 42.7359 92.1049 42.7792 92.1454C42.8915 92.2323 43.0318 92.2751 43.1736 92.2656H44.3348V96.049C44.3177 96.2217 44.3688 96.3943 44.4772 96.5301C44.5264 96.5824 44.5858 96.6241 44.6517 96.6526C44.7177 96.6811 44.7888 96.6958 44.8606 96.6958C44.9325 96.6958 45.0036 96.6811 45.0695 96.6526C45.1355 96.6241 45.1949 96.5824 45.2441 96.5301C45.3524 96.3943 45.4035 96.2217 45.3865 96.049V92.2656H46.482C46.6273 92.2768 46.7716 92.2339 46.8873 92.1454H46.9421Z" fill="#80C342"/>
</g>
<defs>
<clipPath id="clip0">
<rect width="218.868" height="150" fill="white"/>
</clipPath>
</defs>
</svg>
