<svg width="128" height="150" viewBox="0 0 128 150" fill="none" xmlns="http://www.w3.org/2000/svg">
<g clip-path="url(#clip0)">
<path d="M36.8406 29.6706H72.2091C73.0518 29.6706 73.86 29.3358 74.4559 28.7399C75.0518 28.144 75.3866 27.3358 75.3866 26.4931V17.2434C75.3866 16.4007 75.0518 15.5924 74.4559 14.9966C73.86 14.4007 73.0518 14.0659 72.2091 14.0659H68.5907C68.5907 10.3354 67.1088 6.75766 64.4709 4.1198C61.8331 1.48194 58.2553 0 54.5248 0C50.7943 0 47.2166 1.48194 44.5788 4.1198C41.9409 6.75766 40.459 10.3354 40.459 14.0659H36.8406C35.9979 14.0659 35.1897 14.4007 34.5938 14.9966C33.9979 15.5924 33.6631 16.4007 33.6631 17.2434V26.4931C33.6631 27.3358 33.9979 28.144 34.5938 28.7399C35.1897 29.3358 35.9979 29.6706 36.8406 29.6706V29.6706ZM54.5248 8.1434C55.3026 8.1434 56.0727 8.29659 56.7913 8.59423C57.5098 8.89186 58.1627 9.3281 58.7127 9.87806C59.2626 10.428 59.6989 11.0809 59.9965 11.7994C60.2941 12.518 60.4473 13.2881 60.4473 14.0659H48.6024C48.6024 13.2881 48.7556 12.518 49.0532 11.7994C49.3508 11.0809 49.7871 10.428 50.337 9.87806C50.887 9.3281 51.5399 8.89186 52.2584 8.59423C52.977 8.29659 53.7471 8.1434 54.5248 8.1434V8.1434Z" fill="#80C342"/>
<path d="M105.948 91.632V141.466C105.949 142.421 105.762 143.368 105.397 144.252C105.032 145.135 104.497 145.938 103.822 146.615C103.147 147.291 102.345 147.828 101.462 148.195C100.58 148.562 99.6336 148.751 98.6778 148.752H8.52637C6.59527 148.75 4.74402 147.981 3.37931 146.615C2.0146 145.249 1.24805 143.397 1.24805 141.466V27.6077C1.24805 25.6766 2.0146 23.8245 3.37931 22.4582C4.74402 21.0919 6.59527 20.3232 8.52637 20.321H25.2208" stroke="#80C342" stroke-width="3" stroke-linecap="round" stroke-linejoin="round"/>
<path d="M84.1455 20.321H98.6772C99.633 20.3221 100.579 20.5115 101.462 20.8783C102.344 21.245 103.146 21.7821 103.821 22.4587C104.496 23.1353 105.032 23.9383 105.396 24.8218C105.761 25.7052 105.948 26.6519 105.947 27.6077V41.2992" stroke="#80C342" stroke-width="3" stroke-linecap="round" stroke-linejoin="round"/>
<path d="M125.586 44.0691L121.328 40.8833C118.641 38.8786 114.673 39.6605 112.427 42.6384L110.539 45.1338C112.843 46.6227 115.214 48.278 117.568 50.0415C119.922 51.8049 122.384 53.7597 124.538 55.6146L126.435 53.0693C128.689 50.1413 128.306 46.0904 125.586 44.0691ZM108.235 48.2281L66.9023 103.435L66.8524 103.51L66.1454 104.45C65.9357 104.73 65.8011 105.06 65.7544 105.407L63.808 119.764C63.745 120.072 63.771 120.393 63.8829 120.687C63.9948 120.982 64.1881 121.238 64.4402 121.427C64.6285 121.564 64.8436 121.66 65.0714 121.709C65.2992 121.758 65.5348 121.758 65.7627 121.71C65.9044 121.676 66.0434 121.631 66.1786 121.577L79.3878 115.605C79.7149 115.461 80.0008 115.238 80.2196 114.956L122.259 58.7422C120.146 56.8956 117.792 54.9991 115.314 53.1441C112.835 51.2892 110.547 49.7171 108.268 48.2281H108.235Z" fill="#80C342"/>
<path d="M19.7225 115.264C19.1316 115.264 18.5464 115.38 18.0004 115.606C17.4544 115.832 16.9583 116.164 16.5405 116.582C16.1226 117 15.7911 117.496 15.565 118.042C15.3388 118.588 15.2224 119.173 15.2224 119.764C15.2224 120.355 15.3388 120.94 15.565 121.486C15.7911 122.032 16.1226 122.528 16.5405 122.946C16.9583 123.364 17.4544 123.695 18.0004 123.921C18.5464 124.147 19.1316 124.264 19.7225 124.264H47.2221C47.8131 124.264 48.3982 124.147 48.9442 123.921C49.4902 123.695 49.9863 123.364 50.4041 122.946C50.822 122.528 51.1535 122.032 51.3796 121.486C51.6058 120.94 51.7222 120.355 51.7222 119.764C51.7222 119.173 51.6058 118.588 51.3796 118.042C51.1535 117.496 50.822 117 50.4041 116.582C49.9863 116.164 49.4902 115.832 48.9442 115.606C48.3982 115.38 47.8131 115.264 47.2221 115.264H19.7225ZM66.5866 91.632H19.7225C19.1147 91.6059 18.5079 91.703 17.9387 91.9176C17.3694 92.1322 16.8495 92.4598 16.4102 92.8806C15.9709 93.3014 15.6213 93.8068 15.3825 94.3663C15.1436 94.9258 15.0205 95.5279 15.0205 96.1363C15.0205 96.7446 15.1436 97.3467 15.3825 97.9062C15.6213 98.4657 15.9709 98.9711 16.4102 99.3919C16.8495 99.8127 17.3694 100.14 17.9387 100.355C18.5079 100.569 19.1147 100.667 19.7225 100.64H59.8739L66.5866 91.632ZM77.5581 72.5004C77.5582 71.3062 77.0843 70.1607 76.2406 69.3154C75.3969 68.4702 74.2523 67.9942 73.0581 67.992H19.7225C19.1147 67.9659 18.5079 68.063 17.9387 68.2776C17.3694 68.4922 16.8495 68.8198 16.4102 69.2406C15.9709 69.6614 15.6213 70.1668 15.3825 70.7263C15.1436 71.2858 15.0205 71.8879 15.0205 72.4963C15.0205 73.1046 15.1436 73.7067 15.3825 74.2662C15.6213 74.8257 15.9709 75.3311 16.4102 75.7519C16.8495 76.1727 17.3694 76.5003 17.9387 76.7149C18.5079 76.9295 19.1147 77.0266 19.7225 77.0005H73.0581C74.2501 77.0005 75.3935 76.5275 76.2372 75.6854C77.0809 74.8433 77.5559 73.7008 77.5581 72.5087V72.5004ZM73.0581 44.3687H19.7225C18.529 44.3687 17.3844 44.8428 16.5405 45.6867C15.6965 46.5306 15.2224 47.6752 15.2224 48.8687C15.2224 50.0622 15.6965 51.2068 16.5405 52.0508C17.3844 52.8947 18.529 53.3688 19.7225 53.3688H73.0581C74.2516 53.3688 75.3962 52.8947 76.2401 52.0508C77.084 51.2068 77.5581 50.0622 77.5581 48.8687C77.5581 47.6752 77.084 46.5306 76.2401 45.6867C75.3962 44.8428 74.2516 44.3687 73.0581 44.3687V44.3687Z" fill="#80C342"/>
</g>
<defs>
<clipPath id="clip0">
<rect width="127.907" height="150" fill="white"/>
</clipPath>
</defs>
</svg>
