<svg width="100" height="53" viewBox="0 0 100 53" fill="none" xmlns="http://www.w3.org/2000/svg">
<g clip-path="url(#clip0)">
<path d="M51.8502 11.4527C51.8511 10.6617 51.6957 9.87827 51.393 9.14729C51.0903 8.41631 50.6462 7.75214 50.0862 7.1928C49.5262 6.63345 48.8613 6.18991 48.1294 5.88758C47.3976 5.58525 46.6132 5.43005 45.8213 5.43088H43.9962C43.1885 5.4048 42.3838 5.54118 41.6299 5.83192C40.876 6.12265 40.1884 6.5618 39.6078 7.12327C39.0272 7.68473 38.5655 8.35705 38.2503 9.10027C37.935 9.84348 37.7725 10.6424 37.7725 11.4496C37.7725 12.2568 37.935 13.0557 38.2503 13.7989C38.5655 14.5421 39.0272 15.2145 39.6078 15.7759C40.1884 16.3374 40.876 16.7765 41.6299 17.0673C42.3838 17.358 43.1885 17.4944 43.9962 17.4683H45.8276C46.8956 17.4679 47.9445 17.7512 48.8668 18.2891C49.7891 18.827 50.5516 19.6003 51.0762 20.5295H51.8565V11.4527H51.8502Z" fill="#7EC242"/>
<path d="M71.1139 17.6508C71.1156 15.8118 70.3884 14.0469 69.0912 12.7418C67.7941 11.4368 66.0324 10.6977 64.1913 10.686H60.5664C59.651 10.686 58.7446 10.8662 57.8989 11.2163C57.0533 11.5664 56.285 12.0795 55.638 12.7263C54.991 13.3732 54.478 14.141 54.1282 14.986C53.7785 15.8309 53.5989 16.7365 53.5997 17.6508V17.6508V28.387H54.3738C54.9603 27.2501 55.8491 26.2966 56.9427 25.6312C58.0362 24.9659 59.2922 24.6144 60.5727 24.6155H64.1913C66.0324 24.6039 67.7941 23.8648 69.0912 22.5597C70.3884 21.2546 71.1156 19.4898 71.1139 17.6508" fill="#7EC242"/>
<path d="M60.2958 8.80022C61.4641 8.80022 62.5847 8.33663 63.4108 7.51145C64.237 6.68627 64.7011 5.56709 64.7011 4.40011C64.7011 3.23313 64.237 2.11394 63.4108 1.28876C62.5847 0.463581 61.4641 0 60.2958 0H58.005C56.8367 0 55.7162 0.463581 54.89 1.28876C54.0639 2.11394 53.5998 3.23313 53.5998 4.40011V4.40011V11.1134H54.3549C54.7841 10.6657 55.2759 10.2825 55.815 9.97567C57.175 9.18701 58.7233 8.78082 60.2958 8.80022" fill="#7EC242"/>
<path d="M0 22.8931H3.71932V36.3888H11.3279V39.7643H1.83134C1.34564 39.7643 0.87983 39.5716 0.536387 39.2286C0.192944 38.8855 0 38.4203 0 37.9351L0 22.8931Z" fill="white"/>
<path d="M10.9125 31.379V31.3288C10.9072 30.1726 11.1337 29.0271 11.5787 27.9597C12.0236 26.8923 12.678 25.9247 13.5032 25.114C14.3284 24.3032 15.3078 23.6656 16.3836 23.2389C17.4594 22.8121 18.6099 22.6048 19.7672 22.6291C22.8068 22.6291 24.6444 23.4463 26.4003 24.9423L24.0592 27.7647C22.8733 26.6378 21.2904 26.0235 19.6539 26.0549C16.9541 26.0549 14.8018 28.4435 14.8018 31.3099V31.3602C14.8018 34.4466 16.9226 36.7095 19.9182 36.7095C21.162 36.7473 22.3861 36.3932 23.4172 35.6974V33.2585H19.6728V30.0527H25.1731C25.6588 30.0527 26.1246 30.2454 26.468 30.5885C26.8115 30.9315 27.0044 31.3968 27.0044 31.8819V37.3758C25.0032 39.1094 22.4413 40.0606 19.7923 40.0535C14.5312 40.0535 10.9125 36.3637 10.9125 31.379" fill="white"/>
<path d="M29.8049 22.8931H33.5242V37.9351C33.5242 38.4203 33.3313 38.8855 32.9878 39.2286C32.6444 39.5716 32.1786 39.7643 31.6929 39.7643H29.8049V22.8931Z" fill="white"/>
<path d="M53.3669 37.7152L54.0592 36.6529C54.9387 37.3427 56.0078 37.7483 57.124 37.8158C57.9232 37.8158 58.2882 37.5266 58.2882 37.0929V37.0866C58.2882 36.458 57.3442 36.2883 56.2744 35.9614C54.915 35.5654 53.3669 34.9305 53.3669 33.0448V32.9819C53.3669 31.0082 54.9654 29.9019 56.9226 29.9019C58.2161 29.9207 59.4767 30.3114 60.5538 31.027L59.5028 32.9128C58.7131 32.4011 57.81 32.0903 56.8723 32.0076C56.1989 32.0076 55.859 32.2968 55.859 32.6802V32.7179C55.859 33.2648 56.7842 33.5162 57.8351 33.8808C59.1945 34.3334 60.7741 34.9871 60.7741 36.766V36.8037C60.7741 38.9598 59.1567 39.9467 57.0548 39.9467C55.8535 39.929 54.6785 39.5928 53.6501 38.9724C53.5488 38.9084 53.4611 38.8251 53.3923 38.7271C53.3234 38.6291 53.2747 38.5184 53.2489 38.4015C53.2232 38.2846 53.2209 38.1637 53.2422 38.0459C53.2636 37.9281 53.3081 37.8157 53.3732 37.7152" fill="white"/>
<path d="M61.9698 36.3385V30.0527H63.8137C64.0574 30.0527 64.2911 30.1494 64.4634 30.3215C64.6357 30.4936 64.7325 30.727 64.7325 30.9704V35.4774C64.7325 36.7848 65.3619 37.4511 66.4003 37.4511C67.4386 37.4511 68.1246 36.7786 68.1246 35.4774V30.0464H70.8811V39.7643H68.1246V38.3877C67.8147 38.862 67.3923 39.2524 66.895 39.5244C66.3976 39.7963 65.8407 39.9414 65.2738 39.9466C63.1844 39.9466 61.9698 38.57 61.9698 36.3385" fill="white"/>
<path d="M72.6054 30.0466H75.3619V31.4295C75.6952 30.9342 76.1475 30.5303 76.6774 30.2547C77.2073 29.9791 77.7979 29.8405 78.3952 29.8517C80.6671 29.8517 82.8005 31.6306 82.8005 34.8804V34.9181C82.8005 38.1616 80.6797 39.9468 78.3952 39.9468C77.8112 39.9583 77.2326 39.833 76.7058 39.5808C76.179 39.3287 75.7187 38.9567 75.3619 38.4948V41.7508C75.3619 41.9942 75.2651 42.2277 75.0928 42.3998C74.9204 42.5719 74.6867 42.6686 74.4431 42.6686H72.5991V30.0466H72.6054ZM80.0629 34.9244V34.8867C80.0629 33.2712 78.9742 32.2026 77.6841 32.2026C76.394 32.2026 75.3241 33.2712 75.3241 34.8867V34.9244C75.3241 36.5399 76.394 37.6085 77.6841 37.6085C78.9742 37.6085 80.0629 36.5587 80.0629 34.9244" fill="white"/>
<path d="M83.5935 34.9556V34.9242C83.5935 32.1521 85.5695 29.8955 88.4015 29.8955C91.6488 29.8955 93.1403 32.4099 93.1403 35.1694C93.1403 35.3894 93.1403 35.6408 93.1026 35.8922H86.3373C86.4284 36.4456 86.7224 36.9453 87.1622 37.2939C87.602 37.6425 88.156 37.8151 88.7162 37.778C89.1573 37.7834 89.5949 37.6974 90.0011 37.5254C90.4073 37.3534 90.7733 37.0991 91.0761 36.7785L92.6558 38.174C91.9803 38.9668 91.0796 39.5358 90.0731 39.8057C89.0665 40.0756 88.0016 40.0336 87.0195 39.6853C86.0373 39.3369 85.1844 38.6987 84.5737 37.8552C83.963 37.0116 83.6233 36.0026 83.5997 34.9619L83.5935 34.9556ZM90.4594 34.1448C90.2958 32.8876 89.5721 32.0767 88.4078 32.0767C87.2435 32.0767 86.5198 32.8939 86.2996 34.1448H90.4531H90.4594Z" fill="white"/>
<path d="M94.1347 30.0464H96.9163V32.0013C97.4764 30.6625 98.3889 29.7887 100.019 29.8641V32.7494H99.8741C98.0428 32.7494 96.9163 33.8557 96.9163 36.1752V39.7644H95.0283C94.7846 39.7644 94.5509 39.6677 94.3786 39.4956C94.2063 39.3235 94.1095 39.0901 94.1095 38.8467V30.0464H94.1347Z" fill="white"/>
<path d="M43.9836 22.887H41.674L34.4871 39.7645H38.2631L39.8049 35.993H46.9604L48.5022 39.7645H52.3852L45.6765 23.9996C45.5357 23.6693 45.3007 23.3876 45.0008 23.1898C44.7009 22.992 44.3494 22.8866 43.9899 22.887H43.9836ZM41.1454 32.6866L43.3921 27.2179L45.6325 32.6866H41.1454Z" fill="white"/>
<path d="M29.8049 45.2205H31.0636V51.3429H34.3424V52.5058H30.2643C30.1425 52.5058 30.0256 52.4574 29.9395 52.3714C29.8533 52.2853 29.8049 52.1686 29.8049 52.0469V45.2205V45.2205Z" fill="#7EC242"/>
<path d="M34.6822 49.7778C34.6644 49.4123 34.7205 49.0469 34.847 48.7034C34.9735 48.36 35.1679 48.0455 35.4186 47.7786C35.6694 47.5118 35.9713 47.298 36.3064 47.1501C36.6416 47.0022 37.0031 46.9232 37.3694 46.9177C39.1189 46.9177 40.0063 48.2943 40.0063 49.8721C40.0063 49.9852 40.0063 50.0984 40.0063 50.2241H35.9471C35.9823 50.6153 36.1664 50.9781 36.4615 51.2377C36.7565 51.4973 37.1401 51.634 37.533 51.6196C37.8164 51.6139 38.0953 51.5483 38.3514 51.4269C38.6074 51.3055 38.8347 51.1312 39.0183 50.9155L39.7609 51.5441C39.4906 51.8782 39.1466 52.1451 38.7556 52.324C38.3647 52.5029 37.9376 52.5888 37.5079 52.575C37.131 52.5866 36.7558 52.5204 36.4056 52.3807C36.0554 52.2409 35.7379 52.0306 35.4727 51.7628C35.2076 51.495 35.0006 51.1755 34.8645 50.8243C34.7285 50.473 34.6664 50.0975 34.6822 49.7212V49.7778ZM38.7539 49.3126C38.759 48.9363 38.615 48.5733 38.3534 48.3025C38.0917 48.0317 37.7335 47.8751 37.3568 47.8669C36.9798 47.8826 36.6227 48.0406 36.3576 48.3089C36.0925 48.5772 35.9391 48.9358 35.9283 49.3126H38.7539Z" fill="#7EC242"/>
<path d="M41.3027 50.9847V48.0932H40.6042V47.012H41.3027V45.604H42.1083C42.2301 45.604 42.3469 45.6523 42.4331 45.7384C42.5193 45.8245 42.5677 45.9412 42.5677 46.0629V47.012H44.0529V48.0932H42.5614V50.7898C42.5527 50.8814 42.5644 50.9738 42.5954 51.0604C42.6264 51.147 42.6761 51.2257 42.7409 51.2911C42.8057 51.3564 42.8841 51.4068 42.9705 51.4385C43.0569 51.4703 43.1493 51.4828 43.241 51.475C43.5125 51.4756 43.7802 51.4109 44.0214 51.2864V52.3173C43.676 52.5114 43.2848 52.6091 42.8886 52.6002C42.6705 52.6304 42.4483 52.6091 42.2399 52.5381C42.0315 52.4671 41.8426 52.3483 41.6884 52.1913C41.5342 52.0342 41.419 51.8433 41.3521 51.6338C41.2851 51.4242 41.2682 51.2019 41.3027 50.9847" fill="#7EC242"/>
<path d="M46.438 51.4121L46.7527 50.9343C47.265 51.3462 47.8956 51.584 48.5526 51.6132C49.0938 51.6132 49.4084 51.3869 49.4084 51.0223C49.4084 50.5949 48.8232 50.4503 48.1498 50.2555C47.338 50.0292 46.4317 49.696 46.4317 48.64C46.4317 47.5965 47.2939 46.9617 48.3889 46.9617C49.1082 46.9767 49.8085 47.1946 50.4091 47.5903L49.9119 48.4828C49.4481 48.1766 48.9123 47.9968 48.3575 47.9611C48.2697 47.94 48.1784 47.938 48.0898 47.9552C48.0012 47.9724 47.9173 48.0085 47.8439 48.061C47.7704 48.1135 47.7092 48.1811 47.6642 48.2593C47.6193 48.3375 47.5917 48.4245 47.5834 48.5143V48.5143C47.5834 48.9103 48.175 49.0737 48.842 49.2812C49.6476 49.5326 50.5538 49.9097 50.5538 50.884C50.5538 52.0406 49.6602 52.6127 48.5085 52.6127C47.8198 52.6041 47.146 52.4109 46.5576 52.0532C46.5069 52.0213 46.4631 51.9796 46.4287 51.9306C46.3942 51.8816 46.3699 51.8263 46.357 51.7678C46.3441 51.7093 46.343 51.6489 46.3536 51.59C46.3643 51.5311 46.3866 51.4749 46.4191 51.4246" fill="#7EC242"/>
<path d="M53.3858 48.8852C53.3773 48.3875 53.4691 47.8933 53.6558 47.4319C53.8426 46.9704 54.1204 46.5513 54.4727 46.1993C54.8251 45.8474 55.2448 45.5699 55.7067 45.3834C56.1687 45.1969 56.6635 45.1051 57.1617 45.1136C58.1885 45.0645 59.1937 45.4187 59.9622 46.1005L59.1567 47.0497C58.6071 46.5305 57.8739 46.2502 57.1177 46.2702C56.7931 46.2832 56.4742 46.36 56.1794 46.4963C55.8846 46.6327 55.6197 46.8258 55.3998 47.0647C55.18 47.3036 55.0095 47.5835 54.8982 47.8883C54.787 48.1932 54.7371 48.517 54.7514 48.8412V48.8412C54.7277 49.1783 54.7747 49.5168 54.8892 49.8348C55.0038 50.1529 55.1834 50.4436 55.4167 50.6884C55.65 50.9333 55.9318 51.1269 56.2442 51.2569C56.5566 51.3869 56.8926 51.4505 57.231 51.4435C57.8509 51.4525 58.4581 51.2679 58.9679 50.9155V49.5515H57.0799V48.4326H59.7231C59.7834 48.4326 59.8432 48.4445 59.8989 48.4675C59.9546 48.4906 60.0053 48.5244 60.0479 48.567C60.0906 48.6096 60.1244 48.6602 60.1475 48.7159C60.1706 48.7715 60.1825 48.8312 60.1825 48.8915V51.4938C59.3381 52.2231 58.2592 52.6247 57.1429 52.6253C56.641 52.6476 56.1401 52.5653 55.6718 52.3836C55.2036 52.202 54.7784 51.925 54.4232 51.5702C54.068 51.2154 53.7907 50.7907 53.6088 50.323C53.4269 49.8553 53.3446 49.355 53.3669 48.8537" fill="#7EC242"/>
<path d="M61.5544 47.0056H62.8131V48.2628C62.9453 47.8557 63.2079 47.5034 63.5605 47.2603C63.9131 47.0172 64.3361 46.8967 64.764 46.9176V48.2502H64.6885C63.5872 48.2502 62.8005 48.9668 62.8005 50.4251V52.5183H62.0138C61.892 52.5183 61.7752 52.47 61.689 52.3839C61.6028 52.2979 61.5544 52.1812 61.5544 52.0595V47.0307V47.0056Z" fill="#7EC242"/>
<path d="M65.0157 49.7903C65.0157 49.0134 65.3247 48.2684 65.8747 47.719C66.4247 47.1697 67.1706 46.8611 67.9484 46.8611C68.7262 46.8611 69.4721 47.1697 70.0221 47.719C70.5721 48.2684 70.8811 49.0134 70.8811 49.7903V49.7903C70.877 50.1681 70.7983 50.5413 70.6495 50.8887C70.5008 51.2361 70.2849 51.5507 70.0143 51.8147C69.7436 52.0786 69.4235 52.2866 69.0722 52.4267C68.721 52.5669 68.3455 52.6365 67.9673 52.6315C67.5874 52.6416 67.2094 52.5755 66.8555 52.4373C66.5016 52.299 66.1791 52.0913 65.9069 51.8265C65.6347 51.5616 65.4184 51.245 65.2707 50.8953C65.1231 50.5456 65.0471 50.1698 65.0472 49.7903H65.0157ZM69.6539 49.7903C69.6667 49.5607 69.6326 49.3308 69.5538 49.1148C69.4749 48.8987 69.3529 48.7009 69.1952 48.5333C69.0374 48.3658 68.8473 48.232 68.6362 48.1401C68.4251 48.0482 68.1975 48.0002 67.9673 47.9988C67.7415 47.9975 67.5178 48.0426 67.3102 48.1312C67.1025 48.2198 66.9153 48.3501 66.7601 48.5139C66.605 48.6777 66.4851 48.8717 66.4081 49.0836C66.331 49.2956 66.2984 49.5212 66.3121 49.7463V49.7463C66.2994 49.9736 66.3325 50.2012 66.4093 50.4156C66.4862 50.6299 66.6053 50.8267 66.7596 50.9943C66.9139 51.1619 67.1003 51.2969 67.3077 51.3913C67.5151 51.4858 67.7394 51.5377 67.9673 51.5441C68.1936 51.5452 68.4178 51.5002 68.6261 51.4117C68.8343 51.3233 69.0223 51.1932 69.1785 51.0296C69.3347 50.866 69.4557 50.6722 69.5342 50.4602C69.6127 50.2481 69.647 50.0223 69.635 49.7966" fill="#7EC242"/>
<path d="M71.0321 47.0057H72.3222L73.4298 50.7772L74.6507 46.9868H75.7206L76.9541 50.7772L78.0743 47.0057H79.3392L77.533 52.5435H76.4128L75.1794 48.7909L73.9396 52.5435H72.8131L71.0321 47.0057Z" fill="#7EC242"/>
<path d="M45.1227 46.3143C45.1227 46.2219 45.1409 46.1303 45.1764 46.0449C45.2118 45.9595 45.2637 45.8819 45.3292 45.8165C45.3946 45.7511 45.4723 45.6993 45.5578 45.6639C45.6433 45.6285 45.735 45.6103 45.8276 45.6103H46.0415C46.1393 45.6011 46.2379 45.6123 46.331 45.6433C46.4241 45.6743 46.5097 45.7244 46.5824 45.7904C46.655 45.8564 46.713 45.9368 46.7527 46.0265C46.7924 46.1162 46.8129 46.2131 46.8129 46.3112C46.8129 46.4093 46.7924 46.5062 46.7527 46.5959C46.713 46.6856 46.655 46.766 46.5824 46.832C46.5097 46.898 46.4241 46.9481 46.331 46.9791C46.2379 47.0101 46.1393 47.0213 46.0415 47.0121H45.8213C45.6937 47.0093 45.5678 47.0412 45.457 47.1043C45.3462 47.1674 45.2546 47.2594 45.1919 47.3704H45.1227V46.3143Z" fill="#7EC242"/>
</g>
<defs>
<clipPath id="clip0">
<rect width="100" height="52.6316" fill="white"/>
</clipPath>
</defs>
</svg>
