<svg id="comprehensive_advice" data-name="comprehensive advice" xmlns="http://www.w3.org/2000/svg" viewBox="0 0 167.1 168.04"><defs><style>.cls-1{fill:none;stroke:#80c342;stroke-linecap:round;stroke-linejoin:round;stroke-width:3px;}.cls-2{fill:#80c342;}</style></defs><path class="cls-1" d="M183.59,129.5a81.73,81.73,0,0,0,4.32-14.38l-21.85-11.89a59.26,59.26,0,1,1-30.71-56.29c1.39.76,2.72,1.58,4,2.44l.56.36c1.24.83,2.43,1.71,3.6,2.63l.64.5a59.62,59.62,0,0,1,11.54,12.51l-12.28,7.5,45.08,24.54-1.27-51.31-11.63,7.1a82.37,82.37,0,0,0-10.12-12.38h0l-.37-.35c-1.22-1.21-2.48-2.4-3.78-3.54l-.17-.16c-1.31-1.15-2.68-2.24-4.06-3.3l-.88-.67c-1.37-1-2.78-2-4.21-2.95l-.85-.53c-1.54-1-3.1-1.92-4.7-2.8a82.54,82.54,0,1,0-25.93,153.81c12.28-2.3,19-5.6,19-5.6a82.17,82.17,0,0,0,34.52-27.8A88.08,88.08,0,0,0,183.59,129.5Z" transform="translate(-22.93 -14.95)"/><path class="cls-2" d="M104.53,124.5a42.78,42.78,0,0,1-20.09-8.09l6.64-9.7c4.59,3.49,8.85,5.87,13.87,6.89V100.07c-12.25-3.32-18.3-7.92-18.3-18v-.17c0-9.36,7.15-15.57,17.88-16.68V60.24h8.85v5.19a35,35,0,0,1,15.83,6.21l-5.7,10a36,36,0,0,0-10.56-5V89.51c12.94,3.49,18.47,8.69,18.47,18.22v.17c0,9.53-7.32,15.66-18,16.77v8.42h-8.85ZM105,87.39V75.81c-4.17.51-5.87,2.55-5.87,5.28v.17C99.08,84,100.27,85.68,105,87.39Zm8,14.72V114c4-.6,6-2.39,6-5.45v-.17C119,105.6,117.55,103.81,113,102.11Z" transform="translate(-22.93 -14.95)"/><path class="cls-2" d="M104.53,124.5a42.78,42.78,0,0,1-20.09-8.09l6.64-9.7c4.59,3.49,8.85,5.87,13.87,6.89V100.07c-12.25-3.32-18.3-7.92-18.3-18v-.17c0-9.36,7.15-15.57,17.88-16.68V60.24h8.85v5.19a35,35,0,0,1,15.83,6.21l-5.7,10a36,36,0,0,0-10.56-5V89.51c12.94,3.49,18.47,8.69,18.47,18.22v.17c0,9.53-7.32,15.66-18,16.77v8.42h-8.85ZM105,87.39V75.81c-4.17.51-5.87,2.55-5.87,5.28v.17C99.08,84,100.27,85.68,105,87.39Zm8,14.72V114c4-.6,6-2.39,6-5.45v-.17C119,105.6,117.55,103.81,113,102.11Z" transform="translate(-22.93 -14.95)"/></svg>