<svg width="198" height="150" viewBox="0 0 198 150" fill="none" xmlns="http://www.w3.org/2000/svg">
<g clip-path="url(#clip0)">
<path d="M9.44307 56.9801C2.9428 70.9103 -2.17022 90.5414 4.92459 107.01C12.0194 123.478 26.5459 141.711 49.2869 147.095C74.9214 153.183 76.5861 137.993 76.8734 134.87C77.1608 131.747 77.141 126.819 60.6624 118.094C46.1557 110.42 43.8172 96.3713 47.8601 91.6519C51.566 87.3886 61.5542 87.5968 65.7853 97.6007C70.3335 108.408 98.4849 113.018 98.4849 95.0427C98.4849 82.4213 73.6233 80.0715 65.1313 75.828C53.637 70.0873 48.1474 56.6628 52.983 43.2977C58.4329 28.4256 66.9249 27.0872 71.7604 24.2714C76.596 21.4556 78.5877 18.3225 78.8751 13.1867C79.1624 8.05086 84.2754 7.23786 86.5545 7.49564C88.5363 7.74351 93.6592 8.92336 93.6592 14.0394C93.6592 17.7276 93.0845 22.8536 98.7722 25.6892C104.46 28.5248 117.262 34.7909 118.679 45.3104C119.67 53.0043 114.716 55.3937 110.148 54.9773C103.895 54.4122 102.221 47.5809 99.3469 43.8926C93.8673 36.7639 75.1493 37.9934 71.1956 47.0158C68.0644 54.1246 70.6209 61.2335 87.6841 66.3495C104.747 71.4655 116.975 78.0092 116.975 93.9323C116.975 109.855 109.296 113.266 103.043 117.817C96.7904 122.368 92.1431 128.436 95.3635 137.141C98.5839 145.846 113.001 152.221 125.794 144.547C139.399 136.387 151.101 123.21 145.126 106.435C139.151 89.659 137.863 80.7754 142.154 75.947" stroke="#80C342" stroke-width="3"/>
<path d="M187.903 13.4047C192.273 17.321 197.743 23.369 196.108 28.9014C194.046 35.8913 182.859 53.1826 178.985 58.3779C175.11 63.5732 162.14 83.6902 145.374 76.4723M172.673 5.49273C167.193 4.11458 160.188 3.3214 156.819 7.3567C152.142 12.9089 143.937 31.8163 141.698 37.9337C139.458 44.0511 129.886 66.0123 144.997 76.2938L172.673 5.49273Z" stroke="#80C342" stroke-width="3" stroke-linecap="round"/>
<path d="M29.4885 47.1247C29.4885 44.4087 28.6829 41.7537 27.1738 39.4961C25.6647 37.2385 23.5199 35.4797 21.0111 34.4426C18.5024 33.4055 15.7424 33.1367 13.0808 33.6702C10.4192 34.2036 7.9757 35.5155 6.05975 37.4395C4.1438 39.3635 2.8416 41.8132 2.31805 44.4782C1.7945 47.1433 2.07316 49.9039 3.11874 52.4104C4.16432 54.9168 5.92979 57.0565 8.19155 58.5583C10.4533 60.0601 13.1096 60.8565 15.8241 60.8467C19.4527 60.8336 22.9282 59.3821 25.4893 56.8102C28.0505 54.2382 29.4885 50.7555 29.4885 47.1247V47.1247ZM21.5614 47.1247C21.5614 48.6935 21.0964 50.227 20.2254 51.5314C19.3543 52.8358 18.1163 53.8524 16.6678 54.4528C15.2193 55.0531 13.6254 55.2102 12.0877 54.9041C10.55 54.5981 9.13749 53.8426 8.02886 52.7334C6.92022 51.6241 6.16523 50.2108 5.85936 48.6722C5.55349 47.1335 5.71048 45.5387 6.31046 44.0894C6.91045 42.64 7.92649 41.4013 9.23011 40.5297C10.5337 39.6581 12.0664 39.193 13.6342 39.193C15.7366 39.193 17.7529 40.0286 19.2395 41.5161C20.7262 43.0036 21.5614 45.0211 21.5614 47.1247Z" fill="#80C342"/>
<path d="M173.724 8.93325C175.458 9.55788 177.578 8.11033 178.47 5.69114C179.362 3.27194 178.648 0.783345 176.914 0.148802C175.18 -0.485741 173.05 0.971725 172.168 3.39092C171.286 5.81011 171.98 8.34829 173.724 8.93325Z" fill="#80C342"/>
<path d="M184.375 15.1101C185.773 16.3197 188.27 15.7347 189.964 13.7815C191.659 11.8283 191.896 9.27029 190.499 8.0607C189.102 6.8511 186.595 7.43607 184.911 9.37936C183.226 11.3226 182.978 13.8906 184.375 15.1101Z" fill="#80C342"/>
</g>
<defs>
<clipPath id="clip0">
<rect width="197.892" height="150" fill="white"/>
</clipPath>
</defs>
</svg>
